<svg width="880" height="477" viewBox="0 0 880 477" fill="none" xmlns="http://www.w3.org/2000/svg">
<g opacity="0.2">
<path d="M515.013 387.918C515.013 387.918 538.788 411.035 538.946 436.133C538.946 436.133 525.405 434.977 514.068 421.272C502.732 407.402 501 406.411 501.63 400.962C501.63 400.962 505.723 396.835 527.137 419.126C527.137 419.126 525.72 406.411 499.268 388.744C499.268 388.744 505.723 378.176 499.898 367.278C499.898 367.278 492.497 381.478 486.357 384.285C484.31 384.781 486.672 373.553 483.365 369.59C483.365 369.59 477.225 386.267 472.029 383.46C472.029 383.46 472.973 375.369 470.139 368.929C470.139 368.929 463.211 382.964 460.85 381.809C458.488 380.653 453.922 373.883 457.858 364.141C461.794 354.399 479.901 355.554 491.08 357.866C491.08 357.866 483.523 347.298 464.786 350.766C464.786 350.766 468.092 339.042 490.293 344.491C490.293 344.491 488.719 338.712 477.067 335.905C477.067 335.905 491.71 324.677 493.6 314.44C493.6 314.44 480.059 315.1 476.91 310.477C473.761 305.853 487.774 310.311 501.472 297.432C501.472 297.432 480.531 299.248 480.216 295.12C479.901 290.992 499.74 283.727 503.204 279.434C503.204 279.434 468.565 288.516 453.764 263.417C453.764 263.417 448.254 275.471 438.492 279.434V232.705C438.492 232.705 442.9 229.568 453.449 251.033L454.709 252.354C454.709 252.354 453.607 240.961 457.386 240.135C461.165 239.31 461.794 246.245 473.131 246.905C484.625 247.401 498.166 234.686 495.331 218.009C495.331 218.009 505.408 226.43 496.276 244.429C486.987 262.262 472.501 259.289 472.501 259.289C472.501 259.289 492.34 268.701 509.974 236.998C509.974 236.998 513.438 256.813 490.608 266.72C490.608 266.72 510.289 264.738 517.69 246.74C525.09 228.907 519.422 219.495 516.115 213.056C512.809 206.616 522.885 206.616 521.311 197.039C521.311 197.039 517.375 201.497 508.872 200.837C500.212 200.176 473.288 198.525 462.267 209.753C462.267 209.753 461.794 196.379 484.625 193.241C507.455 190.104 530.601 181.518 527.452 150.145C527.452 150.145 519.264 161.208 509.345 161.208C499.425 161.208 482.42 162.859 476.122 158.401C476.122 158.401 481.633 171.776 507.298 169.464C508.243 173.592 501.63 185.15 480.689 187.627C455.181 190.765 444.002 208.928 444.002 208.928H440.696C440.696 208.928 438.806 192.416 414.559 189.113C390.311 185.811 384.801 176.399 384.801 176.399C384.801 176.399 402.12 179.371 413.929 178.546C425.738 177.72 440.853 187.957 440.853 187.957C440.853 187.957 431.564 172.601 401.018 166.987C401.018 166.987 415.976 159.887 447.309 169.794C447.309 169.794 435.972 158.731 421.014 156.42C421.014 156.42 426.84 155.429 461.637 155.429C461.637 155.429 447.466 149.484 428.1 149.154C408.733 148.824 395.035 156.42 387.477 156.75C379.92 157.08 365.119 160.878 352.523 145.522C352.523 145.522 348.744 159.227 354.098 168.969C359.608 178.711 365.277 194.562 354.885 211.9C352.681 215.367 349.846 215.037 351.263 208.763C352.523 202.488 354.727 185.646 342.761 168.638C330.795 151.631 314.735 152.952 310.641 152.952C306.547 152.787 286.708 150.971 281.985 135.779C281.985 135.779 288.125 132.642 311.428 142.549C311.428 142.549 304.5 135.119 279.938 125.377C264.665 119.433 257.265 115.635 256.478 106.223C256.478 106.223 267.972 115.965 290.802 119.433C290.802 119.433 245.299 89.2156 226.719 72.0431C226.719 72.0431 240.733 97.967 240.418 101.765C240.103 105.562 207.668 75.0153 182.633 59.6591C157.598 44.3029 139.334 36.212 139.334 36.212C139.334 36.212 201.212 79.1433 206.251 89.0505C211.289 98.9577 148.466 56.0264 132.563 43.1471C116.503 30.4328 83.1237 3.18799 67.2211 1.20654C67.2211 1.20654 64.8593 21.6814 90.5239 41.661C116.346 61.6405 119.023 66.9244 119.023 66.9244C119.023 66.9244 45.1779 41.3307 27.8582 32.084C27.8582 32.084 15.4196 48.4309 41.399 65.6034C67.536 82.7759 94.3027 96.3158 94.3027 96.3158C94.3027 96.3158 29.2753 91.197 4.71286 79.4735C4.71286 79.4735 -7.4109 89.2156 7.23209 103.581C21.8751 117.947 101.545 133.963 101.545 133.963C101.545 133.963 38.25 137.596 18.0962 134.459C18.0962 134.459 13.5301 153.778 43.131 165.666C72.7319 177.555 142.64 176.234 142.64 176.234L72.1021 188.123C72.1021 188.123 73.9915 214.542 116.346 214.872C116.346 214.872 141.538 214.872 146.734 214.872C151.93 214.872 143.113 221.147 128.627 225.77C125.636 230.063 134.925 243.273 158.385 242.447C174.603 242.447 178.697 241.456 178.697 241.456L163.424 255.657C163.424 255.657 166.415 271.013 191.765 270.683C206.408 270.187 209.872 269.692 209.872 269.692C209.872 269.692 202.629 286.204 217.43 288.681C232.23 291.158 241.205 288.681 241.205 288.681C241.205 288.681 236.009 304.697 241.992 308.33C247.975 311.963 265.138 313.284 270.491 311.798C270.491 311.798 265.925 330.952 276.631 334.914C287.338 338.712 302.139 328.31 304.658 324.842C304.658 324.842 307.177 345.977 318.199 348.619C329.22 351.426 340.399 339.868 340.399 339.868C340.399 339.868 348.744 352.087 358.349 352.913C367.953 353.903 376.771 337.887 376.771 337.887C376.771 337.887 377.715 346.803 385.115 351.757V354.399C385.115 354.399 373.779 357.701 374.409 370.085C374.881 382.469 375.354 386.432 375.354 386.432C375.354 386.432 338.352 407.898 337.093 428.207C336.778 440.261 336.778 441.747 336.778 441.747C336.778 441.747 344.493 443.398 356.144 437.619V455.617C356.144 455.617 368.426 458.424 376.298 449.343V465.69C376.298 465.69 393.46 468.332 400.861 460.571C400.861 460.571 400.388 470.643 409.52 475.101C409.52 475.101 423.534 470.973 430.147 460.406C430.147 460.406 435.342 473.12 445.734 476.918C445.734 476.918 455.811 473.946 463.841 458.094C463.841 458.094 473.446 468.992 485.097 471.469C485.097 471.469 493.285 465.029 495.489 453.801C495.489 453.801 506.196 460.406 520.681 457.599C520.681 457.599 524.145 451.985 524.775 441.252C524.775 441.252 531.86 444.389 546.031 443.729C546.031 443.729 553.274 410.374 515.328 387.588L515.013 387.918ZM466.675 223.293L466.99 223.128C467.62 227.256 471.241 230.393 475.493 229.733C478.484 229.238 481.003 226.761 481.633 223.789C482.106 221.477 481.633 219.165 480.374 217.514L488.089 217.844C488.089 217.844 490.765 227.751 484.31 234.356C478.169 240.796 467.778 240.135 462.267 233.035C460.692 231.054 459.905 229.238 459.905 229.238L466.518 223.458L466.675 223.293ZM292.849 174.253C292.849 174.253 287.653 185.15 273.168 185.15C258.682 185.15 256.793 177.555 256.793 177.555C257.265 177.39 293.006 174.418 293.006 174.418L292.849 174.253ZM280.883 157.74C280.883 157.74 271.75 166.987 257.265 166.987C242.779 166.987 230.498 157.74 230.498 157.74H280.883ZM257.265 141.394C257.265 141.394 246.716 145.852 231.6 145.687C221.209 145.687 211.132 141.394 204.361 133.138C200.897 129.01 199.48 125.707 199.48 125.707C199.48 125.707 224.2 139.577 257.107 141.394H257.265ZM235.222 120.258C199.638 119.598 194.914 103.416 194.914 103.416C211.132 98.9577 235.852 120.258 235.222 120.258ZM162.322 96.8111C162.322 96.8111 109.89 90.0412 95.4049 69.7314C95.4049 69.7314 138.861 77.6572 162.322 96.8111ZM66.9062 104.572C66.9062 104.572 131.146 99.2879 179.956 123.561C179.956 123.561 150.355 130 66.9062 104.572ZM72.417 148.659C72.417 148.659 156.024 141.724 188.301 148.659C188.301 148.659 192.395 156.42 145.632 156.254C98.8688 156.089 72.417 148.659 72.417 148.659ZM106.112 193.406C106.112 193.406 134.295 192.085 169.25 183.004C204.204 173.922 214.753 173.757 214.753 173.757C214.753 173.757 200.897 190.104 172.871 194.727C145.002 199.351 115.716 198.525 106.112 193.406ZM169.722 216.358C169.722 216.358 184.208 206.451 208.927 199.186C233.647 191.92 236.166 187.132 236.166 187.132C236.166 187.132 225.302 206.451 202.314 211.57C179.327 216.688 169.879 216.358 169.879 216.358H169.722ZM205.936 240.961C206.723 226.1 253.014 210.414 253.014 210.414C231.6 243.768 205.936 240.961 205.936 240.961ZM223.255 272.829C232.23 254.996 271.75 229.898 271.75 229.898C271.75 229.898 270.018 239.475 253.014 255.657C236.009 271.839 223.098 272.829 223.098 272.829H223.255ZM254.746 297.432C254.746 297.432 256.163 282.241 267.972 272.829C279.781 263.417 287.496 248.226 287.496 248.226C282.93 280.755 254.746 297.432 254.746 297.432ZM284.661 318.733C284.661 318.733 282.772 304.532 291.432 292.148C300.092 279.599 304.815 259.289 304.815 259.289C306.862 300.569 284.661 318.733 284.661 318.733ZM282.142 198.03C282.142 198.03 295.526 184.655 306.862 196.544C306.862 196.544 291.432 204.469 282.142 198.03ZM319.458 331.117C313.003 314.77 326.544 294.955 326.544 294.955C334.574 311.632 319.458 331.117 319.458 331.117ZM334.574 181.848C320.246 175.739 309.066 162.364 309.066 162.364C309.066 162.364 319.143 159.722 327.961 165.996C336.778 172.106 334.416 182.013 334.416 182.013L334.574 181.848ZM371.575 431.675H364.174C364.174 431.675 363.072 417.64 373.622 413.842C373.622 413.842 369.055 424.905 371.732 431.675H371.575ZM483.208 321.54C483.208 321.54 469.667 333.593 452.977 320.879C452.977 320.879 469.037 311.467 483.208 321.54ZM477.382 301.395C477.382 301.395 466.99 308.495 459.747 306.018C452.505 303.542 450.143 299.909 450.143 299.909C450.143 299.909 470.139 290.167 477.382 301.395ZM451.875 310.807C451.875 310.807 443.53 324.016 430.619 315.43C430.619 315.43 437.074 303.542 451.875 310.807ZM451.403 335.575C448.883 337.391 444.475 339.373 439.436 335.245C438.334 334.254 438.334 332.603 439.436 331.612C441.798 329.796 446.049 327.814 451.403 331.447C452.662 332.438 452.82 334.419 451.403 335.41V335.575ZM416.763 203.809C427.942 211.9 422.746 221.972 422.746 221.972C408.103 203.644 389.524 203.809 389.524 203.809C389.839 198.36 405.584 195.718 416.763 203.809ZM423.691 358.361C420.07 347.133 410.15 347.133 405.269 347.959C402.908 348.289 401.49 345.317 403.222 343.666C407.001 340.033 418.81 341.024 423.691 347.133C430.147 355.224 425.895 361.994 423.691 358.527V358.361ZM389.524 217.679L397.239 217.349C396.137 219 395.507 221.312 395.98 223.623C396.609 226.761 399.129 229.072 402.12 229.568C406.371 230.228 409.993 227.091 410.623 222.963L410.938 223.128L417.551 228.907C417.551 228.907 416.763 230.724 415.189 232.705C409.678 239.805 399.286 240.466 393.146 234.026C386.847 227.421 389.367 217.514 389.367 217.514L389.524 217.679ZM371.102 231.384C371.102 231.384 377.085 266.224 415.031 260.28C415.031 260.28 420.07 266.72 400.073 269.197C379.92 271.673 361.655 244.594 371.102 231.384ZM351.106 337.556C340.399 328.475 348.429 311.632 348.429 311.632C358.821 320.714 351.106 337.556 351.106 337.556ZM352.208 272.829C344.336 240.796 353.783 233.531 353.783 233.531C354.098 250.373 360.238 280.755 376.771 302.881C393.303 325.007 390.941 335.74 390.941 335.74C376.771 304.202 358.506 298.588 352.208 272.829ZM394.248 452.645H384.171C384.171 452.645 384.171 451.654 384.171 444.059C384.171 436.463 394.248 426.391 394.248 426.391V452.81V452.645ZM391.099 371.406C391.571 383.79 390.154 388.578 390.154 388.578C377.4 374.543 385.116 359.352 392.831 359.352C400.546 359.352 400.073 359.187 406.214 359.352C412.355 359.517 421.802 359.848 421.487 369.59C421.172 379.332 412.669 385.937 412.669 385.937C404.954 378.341 406.844 368.104 406.844 368.104C401.805 371.241 401.805 385.937 401.805 385.937C394.248 382.469 391.099 371.406 391.099 371.406ZM415.504 399.642C418.653 407.237 405.584 410.044 405.584 410.044C402.908 396.669 415.504 399.642 415.504 399.642ZM408.733 467.671C408.733 467.671 408.733 467.671 406.529 453.306C404.325 438.94 416.448 426.391 416.448 426.391L415.504 453.966C416.921 448.682 426.998 445.05 426.998 445.05C427.155 468.001 408.733 467.671 408.733 467.671ZM427.942 417.64C423.534 400.467 436.602 400.962 436.602 400.962C441.955 412.521 427.942 417.64 427.942 417.64ZM458.016 448.517C456.756 462.057 446.364 469.652 446.364 469.652C428.572 454.461 440.538 425.565 440.538 425.565C441.168 442.077 447.781 457.434 447.781 457.434C453.764 448.847 451.875 432.005 451.875 432.005C451.875 432.005 458.96 438.445 458.016 448.682V448.517ZM456.126 422.098C442.743 413.347 445.734 400.302 445.734 400.302C454.394 410.87 454.709 409.219 454.709 409.219C458.488 405.421 460.85 394.853 460.85 394.853C465.573 407.402 456.126 422.098 456.126 422.098ZM474.233 401.953C475.808 403.274 478.012 402.614 478.799 400.797C480.059 397.99 480.846 395.183 480.846 395.183C484.782 399.807 479.586 413.181 477.067 413.016C470.297 412.851 466.99 399.146 466.99 399.146C469.509 398.486 472.186 400.137 474.233 401.788V401.953ZM483.995 465.855C459.905 453.471 464.471 421.437 464.471 421.437C476.595 435.307 481.318 452.645 481.318 452.645C483.523 447.196 480.846 432.335 480.846 432.335C497.693 450.994 483.995 465.855 483.995 465.855ZM482.106 415.493C494.859 419.456 509.03 438.28 509.03 438.28C504.779 423.089 490.923 412.521 490.923 412.521C519.737 414.007 519.736 454.296 519.736 454.296C490.765 445.215 481.948 415.493 481.948 415.493H482.106Z" fill="white"/>
<path d="M822.059 100.448C836.86 101.438 836.23 113.162 857.801 112.832C879.214 112.336 880.001 85.2566 880.001 85.2566C880.001 85.2566 863.469 86.4124 839.064 88.0636C814.659 89.5497 773.722 96.6499 773.722 96.6499C784.428 93.8428 808.991 81.7891 808.991 81.7891C808.991 81.7891 786.318 77.3308 787.262 69.7353C788.207 62.1398 803.322 68.5794 810.723 71.7167C818.123 74.854 841.426 73.8633 851.03 57.021C860.635 40.1788 853.864 31.0972 853.864 31.0972C853.864 31.0972 844.417 32.9135 820.012 43.9765C769.943 66.598 753.41 68.2492 753.41 68.2492C759.866 62.9654 762.07 57.6815 762.07 57.6815C762.07 57.6815 739.712 65.7724 718.771 77.9913C697.673 90.3753 697.673 88.3939 698.46 86.9078C723.18 67.4236 733.729 55.0396 733.729 55.0396C693.264 81.9542 669.016 93.6777 673.897 88.0636C678.621 82.4495 709.481 56.8559 724.124 49.9209C738.767 42.9858 747.742 52.5628 768.841 51.2418C789.939 50.086 797.812 32.9135 797.812 32.9135C797.812 32.9135 778.76 43.6463 764.117 39.3532C749.474 34.8949 743.333 34.5647 735.776 38.0322C702.868 54.3791 650.594 93.5126 644.296 99.622C638.156 105.731 632.173 108.208 636.896 102.264C641.462 96.3196 647.445 80.1379 647.445 80.1379C630.126 84.5961 602.887 114.483 602.887 114.483C612.964 114.483 623.67 107.383 623.67 107.383C623.67 107.383 618.789 121.748 600.368 125.216C581.946 128.683 581.946 131.986 581.946 131.986C591.235 130.334 605.721 130.169 607.138 133.141C600.053 141.563 573.758 146.516 568.247 146.021C562.737 145.525 572.656 135.618 572.656 135.618C560.69 141.232 533.293 165.175 533.766 178.219C534.238 191.264 525.106 194.401 525.106 194.401C525.106 194.401 529.357 199.355 532.663 227.095C536.757 277.622 492.828 331.451 492.828 331.451C494.718 336.404 512.667 354.568 512.667 354.568L512.352 335.579H515.029C518.02 345.651 533.608 355.558 533.608 355.558C539.434 352.751 542.425 344.33 542.425 344.33C552.187 349.944 567.932 348.623 567.932 348.623C574.703 343.505 573.916 325.672 573.916 325.672C584.307 332.276 593.125 330.625 593.125 330.625C593.125 330.625 573.128 308.664 563.681 289.015C554.234 269.2 556.911 256.651 556.911 256.651C579.112 309.49 590.291 314.609 590.291 314.609C574.388 290.666 567.775 256.816 572.656 266.063C577.38 275.31 597.533 307.343 603.831 315.929C610.129 324.516 602.887 327.488 602.887 327.488C621.309 328.644 610.444 310.15 610.444 310.15C622.726 314.939 627.134 310.15 627.134 310.15C590.606 299.252 581.316 255.991 581.316 255.991C592.337 271.017 620.206 301.399 618.947 296.61C617.687 291.822 593.755 255.826 599.738 260.779C605.878 265.568 632.015 293.143 636.424 297.601C640.832 302.059 632.802 306.518 632.802 306.518C632.802 306.518 631.543 308.334 643.982 305.527C656.42 302.72 642.407 290.171 642.407 290.171C651.854 290.831 653.744 287.694 653.744 287.694C606.666 272.173 601.47 242.616 601.47 242.616C639.888 277.952 647.603 272.338 647.603 272.338C616.742 250.872 616.27 237.002 616.27 237.002C654.216 270.521 669.961 270.521 670.433 274.484C671.063 278.447 660.671 284.061 660.671 284.061C670.906 285.547 678.149 279.273 681.927 275.31C685.706 271.347 681.77 269.861 665.395 261.935C634.692 247.735 634.534 237.002 634.534 237.002C643.194 243.607 666.497 248.726 666.497 248.726C636.896 231.058 626.347 208.601 626.347 208.601C626.347 208.601 632.488 216.197 657.68 228.746C682.872 241.295 690.115 240.304 691.532 244.598C692.791 248.891 677.519 255 677.519 255C677.519 255 681.298 257.312 697.83 255.33C714.362 253.349 717.354 240.965 717.354 240.965C697.987 237.002 662.718 218.839 651.382 209.922C640.045 201.171 650.437 203.152 662.561 210.087C674.527 216.857 697.043 220.985 697.043 220.985C697.043 220.985 677.361 210.913 657.68 200.18C638.156 189.447 647.918 189.117 657.68 194.401C667.442 199.685 708.537 213.885 713.89 215.702C719.243 217.518 705.23 227.755 705.23 227.755C705.23 227.755 706.647 228.581 728.061 231.553C749.317 234.525 753.568 219.664 753.568 219.664C711.528 210.748 697.515 199.685 697.515 199.685C716.724 204.969 745.223 204.473 745.223 204.473C745.223 204.473 710.741 193.906 692.477 188.126C674.212 182.347 656.893 173.266 673.267 177.559C689.485 181.852 730.107 187.466 730.107 187.466C730.107 187.466 705.545 176.568 695.468 172.935C685.391 169.303 686.651 163.358 689.013 165.34C691.532 167.321 704.285 170.128 728.848 172.11C753.568 174.091 796.709 173.101 796.709 173.101C796.709 173.101 774.824 168.973 758.134 167.652C702.396 162.368 710.426 156.754 710.426 156.754L771.045 157.249C758.134 150.479 754.67 150.974 724.282 148.828C693.894 146.681 698.145 141.232 698.145 141.232L781.909 146.021C793.875 170.624 826.625 170.128 826.625 170.128C826.625 170.128 816.076 164.514 811.982 157.579C807.888 150.809 799.386 145.03 799.386 145.03C799.386 145.03 805.369 144.039 814.187 147.012C828.987 153.286 826.153 164.184 840.481 164.679C854.652 165.175 862.052 154.277 862.052 147.012C862.052 139.746 862.052 137.269 862.052 137.269H765.534C789.939 133.472 805.212 126.206 805.212 126.206C716.567 133.472 731.367 127.692 731.367 127.692C746.482 128.023 786.003 115.143 786.003 115.143C764.904 116.134 697.673 119.932 697.673 119.932C723.967 110.355 791.199 103.09 791.199 103.09C813.242 132.976 841.583 122.904 841.583 122.904C841.583 122.904 827.885 118.776 816.863 109.859C805.684 100.943 807.889 100.283 822.689 101.273L822.059 100.448ZM533.136 344.991C519.595 338.881 525.578 296.941 525.578 296.941C525.421 311.967 532.034 328.644 535.183 335.744C538.489 342.844 533.136 345.156 533.136 345.156V344.991ZM566.515 152.13C574.388 151.635 584.15 152.13 584.15 152.13C584.15 152.13 566.988 165.34 550.298 167.156C550.298 167.156 558.643 152.626 566.673 152.13H566.515ZM560.06 302.72C570.294 325.176 565.413 344.991 565.413 344.991C540.221 330.79 541.953 301.234 541.953 301.234C547.464 317.581 558.328 328.644 558.328 328.644C556.439 315.764 546.204 276.796 546.204 276.796C546.204 276.796 549.826 280.264 560.06 302.72ZM549.511 188.622C542.268 189.613 541.796 188.622 541.796 188.622C541.953 188.457 549.038 178.054 553.132 177.559C557.226 177.063 563.996 176.733 563.996 176.733C563.996 176.733 556.753 187.631 549.511 188.622ZM568.405 217.848C561.319 215.702 558.171 204.969 558.171 204.969C558.171 204.969 568.72 214.215 582.261 213.06C582.261 213.06 575.333 220.16 568.247 218.013L568.405 217.848ZM599.738 204.143C581.158 206.29 571.082 192.585 571.082 192.585C581.946 198.859 610.917 194.731 610.917 194.731C610.917 194.731 605.406 202.492 599.738 204.143ZM624.143 184.329C611.074 184.824 601.942 184.659 586.984 175.742C586.984 175.742 611.704 180.036 624.143 176.898C636.581 173.761 637.841 172.605 637.841 172.605C637.841 172.605 637.211 183.833 624.143 184.329ZM646.028 165.34C623.67 169.633 600.21 161.212 600.21 161.212C615.483 158.24 620.836 160.386 640.203 158.24C659.727 156.093 660.829 149.984 660.829 149.984C665.552 154.937 658.939 162.698 646.028 165.34ZM655.003 144.865C641.147 144.865 621.623 144.865 621.623 144.865C621.623 144.865 624.458 142.553 649.965 138.59C675.472 134.793 680.038 121.088 680.038 121.088C687.281 138.095 668.859 144.865 655.003 144.865ZM673.425 114.648C661.301 119.602 645.084 119.932 645.084 119.932C645.084 119.932 667.757 107.878 678.148 101.273C688.54 94.6684 685.706 109.529 673.425 114.648ZM724.597 97.8057C709.166 103.585 695.311 102.759 695.311 102.759C695.311 102.759 724.439 88.3939 743.176 78.1564C767.423 64.7817 774.824 86.7427 790.254 84.9263C790.254 84.9263 761.283 103.255 728.848 102.924L761.913 86.2473C761.913 86.2473 740.027 92.1916 724.597 97.9708V97.8057Z" fill="white"/>
<path d="M763.157 181.845H810.235C810.235 181.845 807.873 202.981 788.507 203.971C769.14 204.962 773.549 191.918 763.157 181.845Z" fill="white"/>
<path d="M734.972 179.538C734.972 179.538 752.291 175.245 759.062 193.574C760.636 197.537 762.841 201.334 765.832 204.141C766.619 204.967 767.249 205.297 767.249 205.297C767.249 205.297 757.802 206.783 748.67 192.913C741.27 181.85 734.972 179.538 734.972 179.538Z" fill="white"/>
<path d="M756.697 27.6236C756.697 27.6236 792.124 15.7349 808.656 0.708984C808.656 0.708984 817.316 24.6514 793.383 27.6236C778.111 27.6236 756.697 27.6236 756.697 27.6236Z" fill="white"/>
</g>
</svg>
