<svg width="33" height="40" viewBox="0 0 33 40" fill="none" xmlns="http://www.w3.org/2000/svg">
<path d="M3 0H30C30.7954 0.000932958 31.5579 0.325407 32.1203 0.90224C32.6827 1.47907 32.9991 2.26116 33 3.07692V36.9231C32.9991 37.7388 32.6827 38.5209 32.1203 39.0978C31.5579 39.6746 30.7954 39.9991 30 40H3C2.20463 39.9991 1.4421 39.6746 0.879684 39.0978C0.317272 38.5209 0.000907898 37.7388 0 36.9231V3.07692C0.000907898 2.26116 0.317272 1.47907 0.879684 0.90224C1.4421 0.325407 2.20463 0.000932958 3 0ZM24 33.8447C24.445 33.8447 24.88 33.7093 25.25 33.4557C25.62 33.2022 25.9084 32.8418 26.0787 32.4201C26.249 31.9984 26.2936 31.5344 26.2068 31.0868C26.12 30.6391 25.9057 30.2279 25.591 29.9052C25.2763 29.5824 24.8754 29.3627 24.439 29.2736C24.0025 29.1846 23.5501 29.2303 23.139 29.4049C22.7278 29.5796 22.3764 29.8754 22.1292 30.2549C21.882 30.6344 21.75 31.0805 21.75 31.537C21.7507 32.1488 21.988 32.7353 22.4098 33.168C22.8316 33.6006 23.4035 33.844 24 33.8447ZM24 26.1523C24.445 26.1523 24.88 26.017 25.25 25.7634C25.62 25.5099 25.9084 25.1494 26.0787 24.7278C26.249 24.3061 26.2936 23.8421 26.2068 23.3944C26.12 22.9468 25.9057 22.5356 25.591 22.2129C25.2763 21.8901 24.8754 21.6703 24.439 21.5813C24.0025 21.4923 23.5501 21.538 23.139 21.7126C22.7278 21.8873 22.3764 22.1831 22.1292 22.5626C21.882 22.9421 21.75 23.3882 21.75 23.8447C21.7507 24.4565 21.988 25.043 22.4098 25.4757C22.8316 25.9083 23.4035 26.1516 24 26.1523ZM16.5 33.8447C16.945 33.8447 17.38 33.7093 17.75 33.4557C18.12 33.2022 18.4084 32.8418 18.5787 32.4201C18.749 31.9984 18.7936 31.5344 18.7068 31.0868C18.62 30.6391 18.4057 30.2279 18.091 29.9052C17.7763 29.5824 17.3754 29.3627 16.939 29.2736C16.5025 29.1846 16.0501 29.2303 15.639 29.4049C15.2278 29.5796 14.8764 29.8754 14.6292 30.2549C14.382 30.6344 14.25 31.0805 14.25 31.537C14.2507 32.1488 14.488 32.7353 14.9098 33.168C15.3316 33.6006 15.9035 33.844 16.5 33.8447ZM16.5 26.1523C16.945 26.1523 17.38 26.017 17.75 25.7634C18.12 25.5099 18.4084 25.1494 18.5787 24.7278C18.749 24.3061 18.7936 23.8421 18.7068 23.3944C18.62 22.9468 18.4057 22.5356 18.091 22.2129C17.7763 21.8901 17.3754 21.6703 16.939 21.5813C16.5025 21.4923 16.0501 21.538 15.639 21.7126C15.2278 21.8873 14.8764 22.1831 14.6292 22.5626C14.382 22.9421 14.25 23.3882 14.25 23.8447C14.2507 24.4565 14.488 25.043 14.9098 25.4757C15.3316 25.9083 15.9035 26.1516 16.5 26.1523ZM9 33.8447C9.44501 33.8447 9.88002 33.7093 10.25 33.4557C10.62 33.2022 10.9084 32.8418 11.0787 32.4201C11.249 31.9984 11.2936 31.5344 11.2068 31.0868C11.12 30.6391 10.9057 30.2279 10.591 29.9052C10.2763 29.5824 9.87541 29.3627 9.43895 29.2736C9.00249 29.1846 8.5501 29.2303 8.13896 29.4049C7.72783 29.5796 7.37643 29.8754 7.12919 30.2549C6.88196 30.6344 6.75 31.0805 6.75 31.537C6.75068 32.1488 6.98796 32.7353 7.40976 33.168C7.83157 33.6006 8.40347 33.844 9 33.8447ZM9 26.1523C9.44501 26.1523 9.88002 26.017 10.25 25.7634C10.62 25.5099 10.9084 25.1494 11.0787 24.7278C11.249 24.3061 11.2936 23.8421 11.2068 23.3944C11.12 22.9468 10.9057 22.5356 10.591 22.2129C10.2763 21.8901 9.87541 21.6703 9.43895 21.5813C9.00249 21.4923 8.5501 21.538 8.13896 21.7126C7.72783 21.8873 7.37643 22.1831 7.12919 22.5626C6.88196 22.9421 6.75 23.3882 6.75 23.8447C6.75068 24.4565 6.98796 25.043 7.40976 25.4757C7.83157 25.9083 8.40347 26.1516 9 26.1523ZM6 15.3831C5.99999 15.5851 6.03879 15.7852 6.11417 15.9719C6.18955 16.1585 6.30004 16.3281 6.43933 16.471C6.57862 16.6138 6.74398 16.7272 6.92597 16.8045C7.10796 16.8818 7.30301 16.9216 7.5 16.9216H25.5C25.697 16.9216 25.892 16.8818 26.074 16.8045C26.256 16.7272 26.4214 16.6138 26.5607 16.471C26.7 16.3281 26.8105 16.1585 26.8858 15.9719C26.9612 15.7852 27 15.5851 27 15.3831V7.69081C27 7.48877 26.9612 7.28871 26.8858 7.10206C26.8105 6.9154 26.7 6.7458 26.5607 6.60294C26.4214 6.46008 26.256 6.34675 26.074 6.26944C25.892 6.19213 25.697 6.15234 25.5 6.15234H7.5C7.30301 6.15234 7.10796 6.19213 6.92597 6.26944C6.74398 6.34675 6.57862 6.46008 6.43933 6.60294C6.30004 6.7458 6.18955 6.9154 6.11417 7.10206C6.03879 7.28871 5.99999 7.48877 6 7.69081V15.3831Z" fill="white"/>
</svg>
