<svg width="280" height="219" viewBox="0 0 280 219" fill="none" xmlns="http://www.w3.org/2000/svg">
<path d="M163.871 119.87C163.871 119.87 171.436 127.026 171.486 134.796C171.486 134.796 167.177 134.438 163.57 130.195C159.963 125.901 159.412 125.595 159.612 123.908C159.612 123.908 160.915 122.63 167.728 129.531C167.728 129.531 167.277 125.595 158.861 120.125C158.861 120.125 160.915 116.854 159.061 113.48C159.061 113.48 156.706 117.876 154.753 118.745C154.101 118.898 154.853 115.422 153.801 114.196C153.801 114.196 151.847 119.358 150.194 118.489C150.194 118.489 150.494 115.985 149.592 113.991C149.592 113.991 147.388 118.336 146.637 117.978C145.885 117.62 144.432 115.525 145.685 112.509C146.937 109.493 152.699 109.851 156.256 110.566C156.256 110.566 153.851 107.295 147.889 108.368C147.889 108.368 148.941 104.739 156.005 106.426C156.005 106.426 155.504 104.637 151.797 103.768C151.797 103.768 156.456 100.292 157.057 97.1226C157.057 97.1226 152.749 97.327 151.747 95.8958C150.745 94.4645 155.203 95.8447 159.562 91.8575C159.562 91.8575 152.899 92.4198 152.799 91.1419C152.699 89.864 159.011 87.6148 160.113 86.2858C160.113 86.2858 149.091 89.0972 144.382 81.3274C144.382 81.3274 142.629 85.059 139.522 86.2858V71.8197C139.522 71.8197 140.925 70.8485 144.282 77.4937L144.683 77.9026C144.683 77.9026 144.332 74.3755 145.534 74.1199C146.737 73.8644 146.937 76.0113 150.544 76.2157C154.201 76.3691 158.51 72.4331 157.608 67.2703C157.608 67.2703 160.815 69.8772 157.909 75.449C154.953 80.9696 150.344 80.0495 150.344 80.0495C150.344 80.0495 156.656 82.9632 162.267 73.1487C162.267 73.1487 163.37 79.2828 156.105 82.3498C156.105 82.3498 162.368 81.7364 164.722 76.1646C167.077 70.644 165.273 67.7303 164.221 65.7368C163.169 63.7432 166.376 63.7432 165.875 60.7784C165.875 60.7784 164.622 62.1586 161.917 61.9541C159.161 61.7496 150.594 61.2385 147.087 64.7144C147.087 64.7144 146.937 60.5739 154.201 59.6027C161.466 58.6315 168.83 55.9734 167.828 46.2612C167.828 46.2612 165.223 49.686 162.067 49.686C158.911 49.686 153.5 50.1972 151.496 48.817C151.496 48.817 153.25 52.9575 161.416 52.2419C161.716 53.5198 159.612 57.098 152.949 57.8647C144.833 58.836 141.276 64.4588 141.276 64.4588H140.224C140.224 64.4588 139.623 59.3471 131.907 58.3248C124.192 57.3025 122.439 54.3888 122.439 54.3888C122.439 54.3888 127.95 55.3089 131.707 55.0533C135.464 54.7977 140.274 57.967 140.274 57.967C140.274 57.967 137.318 53.2131 127.599 51.4751C127.599 51.4751 132.358 49.2771 142.328 52.3441C142.328 52.3441 138.721 48.9193 133.961 48.2036C133.961 48.2036 135.815 47.8969 146.887 47.8969C146.887 47.8969 142.378 46.0567 136.216 45.9545C130.054 45.8523 125.695 48.2036 123.29 48.3059C120.886 48.4081 116.176 49.5838 112.168 44.8299C112.168 44.8299 110.966 49.0726 112.669 52.0885C114.423 55.1044 116.226 60.0117 112.92 65.3789C112.218 66.4524 111.317 66.3502 111.768 64.4077C112.168 62.4653 112.87 57.2513 109.062 51.9863C105.255 46.7212 100.145 47.1302 98.842 47.1302C97.5394 47.0791 91.227 46.5168 89.724 41.814C89.724 41.814 91.6779 40.8428 99.0925 43.9098C99.0925 43.9098 96.8882 41.6096 89.0727 38.5937C84.2131 36.7534 81.8585 35.5777 81.608 32.6641C81.608 32.6641 85.2652 35.68 92.5295 36.7534C92.5295 36.7534 78.0509 27.399 72.1392 22.0829C72.1392 22.0829 76.5981 30.1082 76.4979 31.2839C76.3977 32.4596 66.0772 23.003 58.1115 18.2491C50.1458 13.4952 44.3343 10.9905 44.3343 10.9905C44.3343 10.9905 64.0232 24.2809 65.6264 27.3479C67.2295 30.4149 47.24 17.1245 42.18 13.1374C37.0699 9.20139 26.4489 0.76709 21.3889 0.153687C21.3889 0.153687 20.6374 6.49219 28.8036 12.6773C37.0198 18.8625 37.8715 20.4982 37.8715 20.4982C37.8715 20.4982 14.375 12.5751 8.86413 9.71256C8.86413 9.71256 4.90631 14.7731 13.1727 20.0893C21.4891 25.4055 30.0059 29.5971 30.0059 29.5971C30.0059 29.5971 9.31502 28.0124 1.49957 24.3831C1.49957 24.3831 -2.35805 27.399 2.30116 31.8462C6.96037 36.2934 32.3105 41.2517 32.3105 41.2517C32.3105 41.2517 12.1707 42.3763 5.75799 41.4051C5.75799 41.4051 4.30512 47.3858 13.7237 51.0662C23.1424 54.7466 45.3863 54.3377 45.3863 54.3377L22.942 58.0181C22.942 58.0181 23.5432 66.1968 37.0198 66.299C37.0198 66.299 45.0356 66.299 46.6889 66.299C48.3422 66.299 45.5366 68.2415 40.9275 69.6728C39.9756 71.0018 42.9315 75.0912 50.3962 74.8356C55.5564 74.8356 56.859 74.5289 56.859 74.5289L51.9994 78.9249C51.9994 78.9249 52.9513 83.6788 61.0172 83.5766C65.6765 83.4232 66.7786 83.2699 66.7786 83.2699C66.7786 83.2699 64.4741 88.3816 69.1834 89.1483C73.8927 89.9151 76.7483 89.1483 76.7483 89.1483C76.7483 89.1483 75.0951 94.1067 76.9988 95.2312C78.9026 96.3558 84.3634 96.7648 86.0668 96.3047C86.0668 96.3047 84.6139 102.234 88.0206 103.461C91.4274 104.637 96.1367 101.416 96.9383 100.343C96.9383 100.343 97.7398 106.886 101.247 107.704C104.754 108.573 108.311 104.995 108.311 104.995C108.311 104.995 110.966 108.777 114.022 109.033C117.078 109.34 119.884 104.381 119.884 104.381C119.884 104.381 120.184 107.142 122.539 108.675V109.493C122.539 109.493 118.932 110.515 119.132 114.349C119.282 118.183 119.433 119.41 119.433 119.41C119.433 119.41 107.659 126.055 107.259 132.342C107.158 136.074 107.158 136.534 107.158 136.534C107.158 136.534 109.613 137.045 113.321 135.256V140.828C113.321 140.828 117.228 141.697 119.733 138.885V143.946C119.733 143.946 125.194 144.764 127.549 142.361C127.549 142.361 127.398 145.479 130.304 146.859C130.304 146.859 134.763 145.581 136.867 142.31C136.867 142.31 138.52 146.246 141.827 147.422C141.827 147.422 145.033 146.502 147.588 141.594C147.588 141.594 150.644 144.968 154.352 145.735C154.352 145.735 156.957 143.741 157.658 140.265C157.658 140.265 161.065 142.31 165.674 141.441C165.674 141.441 166.776 139.703 166.977 136.38C166.977 136.38 169.231 137.352 173.74 137.147C173.74 137.147 176.045 126.822 163.971 119.767L163.871 119.87ZM148.49 68.906L148.59 68.8549C148.791 70.1328 149.943 71.104 151.296 70.8996C152.248 70.7462 153.049 69.9795 153.25 69.0594C153.4 68.3437 153.25 67.6281 152.849 67.1169L155.304 67.2192C155.304 67.2192 156.155 70.2862 154.101 72.3308C152.147 74.3244 148.841 74.1199 147.087 71.9219C146.586 71.3085 146.336 70.7462 146.336 70.7462L148.44 68.9571L148.49 68.906ZM93.1808 53.7243C93.1808 53.7243 91.5276 57.098 86.9184 57.098C82.3093 57.098 81.7081 54.7466 81.7081 54.7466C81.8584 54.6955 93.2309 53.7754 93.2309 53.7754L93.1808 53.7243ZM89.3733 48.6126C89.3733 48.6126 86.4676 51.4751 81.8584 51.4751C77.2493 51.4751 73.3416 48.6126 73.3416 48.6126H89.3733ZM81.8584 43.552C81.8584 43.552 78.5018 44.9322 73.6923 44.881C70.3858 44.881 67.1794 43.552 65.0252 40.9961C63.923 39.7182 63.4721 38.6959 63.4721 38.6959C63.4721 38.6959 71.3376 42.9897 81.8083 43.552H81.8584ZM74.8446 37.009C63.5222 36.8046 62.0192 31.7951 62.0192 31.7951C67.1794 30.4149 75.045 37.009 74.8446 37.009ZM51.6487 29.7504C51.6487 29.7504 34.9657 27.6546 30.3566 21.3672C30.3566 21.3672 44.184 23.8208 51.6487 29.7504ZM21.2887 32.1529C21.2887 32.1529 41.7291 30.5172 57.2598 38.0314C57.2598 38.0314 47.8412 40.0249 21.2887 32.1529ZM23.0422 45.8011C23.0422 45.8011 49.6448 43.6542 59.9151 45.8011C59.9151 45.8011 61.2176 48.2036 46.3382 48.1525C31.4588 48.1014 23.0422 45.8011 23.0422 45.8011ZM33.7634 59.6538C33.7634 59.6538 42.7311 59.2449 53.8531 56.4335C64.9751 53.622 68.3317 53.5709 68.3317 53.5709C68.3317 53.5709 63.923 58.6315 55.0054 60.0628C46.1378 61.4941 36.8194 61.2385 33.7634 59.6538ZM54.0034 66.7591C54.0034 66.7591 58.6125 63.6921 66.478 61.4429C74.3436 59.1938 75.1452 57.7114 75.1452 57.7114C75.1452 57.7114 71.6883 63.6921 64.3739 65.2767C57.0594 66.8613 54.0535 66.7591 54.0535 66.7591H54.0034ZM65.5262 74.3755C65.7767 69.775 80.5058 64.9189 80.5058 64.9189C73.6923 75.2445 65.5262 74.3755 65.5262 74.3755ZM71.0371 84.2411C73.8927 78.7205 86.4676 70.9507 86.4676 70.9507C86.4676 70.9507 85.9165 73.9155 80.5058 78.9249C75.0951 83.9344 70.987 84.2411 70.987 84.2411H71.0371ZM81.0569 91.8575C81.0569 91.8575 81.5078 87.1548 85.2652 84.2411C89.0226 81.3274 91.4775 76.6247 91.4775 76.6247C90.0246 86.6947 81.0569 91.8575 81.0569 91.8575ZM90.5757 98.4516C90.5757 98.4516 89.9745 94.0556 92.7299 90.2218C95.4854 86.3369 96.9884 80.0495 96.9884 80.0495C97.6396 92.8288 90.5757 98.4516 90.5757 98.4516ZM89.7741 61.0851C89.7741 61.0851 94.0325 56.9446 97.6396 60.6251C97.6396 60.6251 92.7299 63.0787 89.7741 61.0851ZM101.648 102.285C99.5935 97.2248 103.902 91.0908 103.902 91.0908C106.457 96.2536 101.648 102.285 101.648 102.285ZM106.457 56.0757C101.898 54.1843 98.341 50.0439 98.341 50.0439C98.341 50.0439 101.547 49.226 104.353 51.1684C107.158 53.0598 106.407 56.1268 106.407 56.1268L106.457 56.0757ZM118.23 133.416H115.876C115.876 133.416 115.525 129.071 118.882 127.895C118.882 127.895 117.429 131.32 118.28 133.416H118.23ZM153.751 99.3206C153.751 99.3206 149.442 103.052 144.132 99.1161C144.132 99.1161 149.242 96.2025 153.751 99.3206ZM151.897 93.0843C151.897 93.0843 148.59 95.2824 146.286 94.5156C143.981 93.7489 143.23 92.6243 143.23 92.6243C143.23 92.6243 149.592 89.6084 151.897 93.0843ZM143.781 95.998C143.781 95.998 141.126 100.087 137.018 97.4293C137.018 97.4293 139.072 93.7489 143.781 95.998ZM143.631 103.666C142.829 104.228 141.426 104.841 139.823 103.563C139.472 103.257 139.472 102.745 139.823 102.439C140.575 101.876 141.927 101.263 143.631 102.388C144.031 102.694 144.081 103.308 143.631 103.614V103.666ZM132.609 62.8742C136.166 65.3789 134.513 68.4971 134.513 68.4971C129.853 62.8231 123.942 62.8742 123.942 62.8742C124.042 61.1874 129.052 60.3695 132.609 62.8742ZM134.813 110.72C133.661 107.244 130.505 107.244 128.952 107.499C128.2 107.602 127.749 106.681 128.3 106.17C129.503 105.046 133.26 105.352 134.813 107.244C136.867 109.748 135.515 111.844 134.813 110.771V110.72ZM123.942 67.168L126.396 67.0658C126.046 67.577 125.845 68.2926 125.996 69.0082C126.196 69.9795 126.998 70.6951 127.95 70.8485C129.302 71.0529 130.455 70.0817 130.655 68.8038L130.755 68.8549L132.859 70.644C132.859 70.644 132.609 71.2063 132.108 71.8197C130.354 74.0177 127.048 74.2222 125.094 72.2286C123.09 70.1839 123.892 67.1169 123.892 67.1169L123.942 67.168ZM118.08 71.4108C118.08 71.4108 119.984 82.1964 132.058 80.3562C132.058 80.3562 133.661 82.3498 127.298 83.1165C120.886 83.8833 115.074 75.5001 118.08 71.4108ZM111.717 104.279C108.311 101.468 110.866 96.2536 110.866 96.2536C114.172 99.065 111.717 104.279 111.717 104.279ZM112.068 84.2411C109.563 74.3244 112.569 72.0753 112.569 72.0753C112.669 77.2892 114.623 86.6947 119.884 93.5444C125.144 100.394 124.393 103.717 124.393 103.717C119.884 93.9533 114.072 92.2153 112.068 84.2411ZM125.445 139.907H122.238C122.238 139.907 122.238 139.601 122.238 137.249C122.238 134.898 125.445 131.78 125.445 131.78V139.959V139.907ZM124.443 114.758C124.593 118.592 124.142 120.074 124.142 120.074C120.084 115.729 122.539 111.026 124.994 111.026C127.449 111.026 127.298 110.975 129.252 111.026C131.206 111.078 134.212 111.18 134.112 114.196C134.012 117.212 131.306 119.256 131.306 119.256C128.851 116.905 129.453 113.736 129.453 113.736C127.849 114.707 127.849 119.256 127.849 119.256C125.445 118.183 124.443 114.758 124.443 114.758ZM132.208 123.499C133.21 125.85 129.052 126.719 129.052 126.719C128.2 122.579 132.208 123.499 132.208 123.499ZM130.054 144.559C130.054 144.559 130.054 144.559 129.352 140.112C128.651 135.665 132.509 131.78 132.509 131.78L132.208 140.316C132.659 138.681 135.865 137.556 135.865 137.556C135.915 144.661 130.054 144.559 130.054 144.559ZM136.166 129.071C134.763 123.755 138.921 123.908 138.921 123.908C140.625 127.486 136.166 129.071 136.166 129.071ZM145.735 138.63C145.334 142.821 142.027 145.173 142.027 145.173C136.366 140.47 140.174 131.524 140.174 131.524C140.374 136.636 142.478 141.39 142.478 141.39C144.382 138.732 143.781 133.518 143.781 133.518C143.781 133.518 146.035 135.511 145.735 138.681V138.63ZM145.134 130.451C140.875 127.742 141.827 123.703 141.827 123.703C144.582 126.975 144.683 126.464 144.683 126.464C145.885 125.288 146.637 122.017 146.637 122.017C148.139 125.901 145.134 130.451 145.134 130.451ZM150.895 124.215C151.396 124.624 152.097 124.419 152.348 123.857C152.749 122.988 152.999 122.119 152.999 122.119C154.252 123.55 152.598 127.691 151.797 127.639C149.642 127.588 148.59 123.346 148.59 123.346C149.392 123.141 150.244 123.652 150.895 124.163V124.215ZM154.001 143.997C146.336 140.163 147.789 130.246 147.789 130.246C151.646 134.54 153.149 139.907 153.149 139.907C153.851 138.221 152.999 133.62 152.999 133.62C158.36 139.396 154.001 143.997 154.001 143.997ZM153.4 128.406C157.458 129.633 161.967 135.46 161.967 135.46C160.614 130.758 156.205 127.486 156.205 127.486C165.374 127.946 165.374 140.419 165.374 140.419C156.155 137.607 153.35 128.406 153.35 128.406H153.4Z" fill="white"/>
<path d="M261.564 30.8758C266.273 31.1825 266.072 34.8118 272.936 34.7095C279.749 34.5562 280 26.173 280 26.173C280 26.173 274.74 26.5308 266.974 27.042C259.209 27.5021 246.183 29.7001 246.183 29.7001C249.59 28.8311 257.405 25.0996 257.405 25.0996C257.405 25.0996 250.191 23.7194 250.492 21.368C250.792 19.0166 255.602 21.0102 257.956 21.9814C260.311 22.9526 267.726 22.6459 270.782 17.432C273.838 12.2181 271.684 9.40665 271.684 9.40665C271.684 9.40665 268.678 9.96893 260.912 13.3938C244.981 20.3968 239.72 20.908 239.72 20.908C241.774 19.2722 242.476 17.6365 242.476 17.6365C242.476 17.6365 235.362 20.1412 228.699 23.9239C221.985 27.7576 221.985 27.1442 222.236 26.6842C230.101 20.6524 233.458 16.8186 233.458 16.8186C220.582 25.1507 212.867 28.78 214.42 27.042C215.923 25.304 225.743 17.3809 230.402 15.234C235.061 13.0871 237.917 16.0519 244.63 15.6429C251.343 15.2851 253.848 9.96893 253.848 9.96893C253.848 9.96893 247.786 13.2915 243.127 11.9625C238.468 10.5823 236.514 10.4801 234.109 11.5536C223.639 16.6141 207.006 28.7289 205.002 30.6202C203.048 32.5115 201.144 33.2783 202.647 31.4381C204.1 29.5979 206.004 24.5884 206.004 24.5884C200.493 25.9685 191.826 35.2207 191.826 35.2207C195.032 35.2207 198.439 33.0227 198.439 33.0227C198.439 33.0227 196.886 37.4699 191.024 38.5433C185.162 39.6168 185.162 40.6391 185.162 40.6391C188.118 40.1279 192.727 40.0768 193.178 40.9969C190.924 43.6039 182.557 45.1374 180.804 44.9841C179.05 44.8307 182.207 41.7637 182.207 41.7637C178.399 43.5017 169.682 50.9136 169.832 54.9519C169.982 58.9901 167.077 59.9613 167.077 59.9613C167.077 59.9613 168.429 61.4948 169.481 70.0825C170.784 85.7243 156.806 102.388 156.806 102.388C157.408 103.922 163.119 109.545 163.119 109.545L163.019 103.666H163.87C164.822 106.784 169.782 109.852 169.782 109.852C171.636 108.983 172.588 106.376 172.588 106.376C175.694 108.114 180.704 107.705 180.704 107.705C182.858 106.12 182.607 100.599 182.607 100.599C185.914 102.644 188.719 102.133 188.719 102.133C188.719 102.133 182.357 95.3343 179.351 89.2514C176.345 83.1173 177.197 79.2324 177.197 79.2324C184.261 95.5899 187.818 97.1745 187.818 97.1745C182.758 89.7625 180.654 79.2836 182.207 82.1461C183.71 85.0087 190.122 94.9253 192.126 97.5834C194.13 100.242 191.826 101.162 191.826 101.162C197.687 101.519 194.23 95.7943 194.23 95.7943C198.138 97.2767 199.541 95.7943 199.541 95.7943C187.918 92.4206 184.962 79.028 184.962 79.028C188.469 83.6796 197.337 93.0851 196.936 91.6027C196.535 90.1204 188.92 78.9769 190.824 80.5104C192.778 81.9928 201.094 90.5293 202.497 91.9094C203.899 93.2896 201.344 94.6698 201.344 94.6698C201.344 94.6698 200.944 95.232 204.901 94.3631C208.859 93.4941 204.4 89.6092 204.4 89.6092C207.406 89.8137 208.008 88.8424 208.008 88.8424C193.028 84.0374 191.375 74.8875 191.375 74.8875C203.599 85.8265 206.054 84.0886 206.054 84.0886C196.234 77.4433 196.084 73.1495 196.084 73.1495C208.158 83.5263 213.168 83.5263 213.318 84.7531C213.519 85.9799 210.212 87.7178 210.212 87.7178C213.468 88.1779 215.773 86.2355 216.975 85.0087C218.178 83.7818 216.925 83.3218 211.715 80.8682C201.946 76.4721 201.896 73.1495 201.896 73.1495C204.651 75.1942 212.066 76.7788 212.066 76.7788C202.647 71.3093 199.29 64.3574 199.29 64.3574C199.29 64.3574 201.244 66.7088 209.26 70.5937C217.276 74.4786 219.58 74.1719 220.031 75.5009C220.432 76.8299 215.573 78.7213 215.573 78.7213C215.573 78.7213 216.775 79.4369 222.035 78.8235C227.296 78.2101 228.248 74.3763 228.248 74.3763C222.085 73.1495 210.863 67.5266 207.256 64.7663C203.649 62.0571 206.956 62.6705 210.813 64.8175C214.621 66.9132 221.785 68.1912 221.785 68.1912C221.785 68.1912 215.522 65.073 209.26 61.7504C203.048 58.4278 206.154 58.3256 209.26 59.9613C212.366 61.5971 225.442 65.9931 227.145 66.5554C228.849 67.1177 224.39 70.287 224.39 70.287C224.39 70.287 224.841 70.5425 231.654 71.4627C238.418 72.3828 239.77 67.7822 239.77 67.7822C226.394 65.0219 221.935 61.5971 221.935 61.5971C228.047 63.2328 237.115 63.0795 237.115 63.0795C237.115 63.0795 226.143 59.808 220.332 58.0189C214.521 56.2298 209.01 53.4184 214.22 54.7474C219.38 56.0764 232.306 57.8144 232.306 57.8144C232.306 57.8144 224.49 54.4407 221.284 53.3161C218.078 52.1916 218.478 50.3513 219.23 50.9647C220.031 51.5782 224.089 52.4471 231.905 53.0605C239.77 53.674 253.498 53.3672 253.498 53.3672C253.498 53.3672 246.534 52.0893 241.223 51.6804C223.488 50.0446 226.043 48.3067 226.043 48.3067L245.331 48.46C241.223 46.3642 240.121 46.5176 230.452 45.8531C220.783 45.1885 222.136 43.5017 222.136 43.5017L248.788 44.9841C252.596 52.6005 263.016 52.4471 263.016 52.4471C263.016 52.4471 259.66 50.7092 258.357 48.5622C257.055 46.4665 254.349 44.6774 254.349 44.6774C254.349 44.6774 256.253 44.3707 259.059 45.2908C263.768 47.2332 262.866 50.6069 267.425 50.7603C271.934 50.9136 274.289 47.5399 274.289 45.2908C274.289 43.0416 274.289 42.2749 274.289 42.2749H243.578C251.343 41.0992 256.203 38.85 256.203 38.85C227.997 41.0992 232.706 39.3101 232.706 39.3101C237.516 39.4123 250.091 35.4252 250.091 35.4252C243.378 35.7319 221.985 36.9076 221.985 36.9076C230.352 33.9428 251.744 31.6936 251.744 31.6936C258.758 40.9458 267.776 37.8277 267.776 37.8277C267.776 37.8277 263.417 36.5498 259.91 33.7894C256.353 31.0291 257.055 30.8247 261.764 31.1314L261.564 30.8758ZM169.632 106.58C165.323 104.689 167.227 91.705 167.227 91.705C167.177 96.3566 169.281 101.519 170.283 103.717C171.335 105.916 169.632 106.631 169.632 106.631V106.58ZM180.253 46.8754C182.758 46.722 185.864 46.8754 185.864 46.8754C185.864 46.8754 180.403 50.9647 175.093 51.527C175.093 51.527 177.748 47.0287 180.303 46.8754H180.253ZM178.199 93.4941C181.455 100.446 179.902 106.58 179.902 106.58C171.886 102.184 172.437 93.034 172.437 93.034C174.191 98.0946 177.648 101.519 177.648 101.519C177.046 97.5323 173.79 85.4687 173.79 85.4687C173.79 85.4687 174.942 86.5422 178.199 93.4941ZM174.842 58.1722C172.538 58.4789 172.387 58.1722 172.387 58.1722C172.437 58.1211 174.692 54.9008 175.994 54.7474C177.297 54.5941 179.451 54.4918 179.451 54.4918C179.451 54.4918 177.147 57.8655 174.842 58.1722ZM180.854 67.2199C178.599 66.5554 177.598 63.2328 177.598 63.2328C177.598 63.2328 180.954 66.0954 185.263 65.7376C185.263 65.7376 183.058 67.9356 180.804 67.2711L180.854 67.2199ZM190.824 62.9772C184.912 63.6418 181.706 59.399 181.706 59.399C185.162 61.3415 194.381 60.0636 194.381 60.0636C194.381 60.0636 192.627 62.4661 190.824 62.9772ZM198.589 56.8432C194.431 56.9966 191.525 56.9454 186.766 54.1851C186.766 54.1851 194.631 55.5142 198.589 54.5429C202.547 53.5717 202.948 53.2139 202.948 53.2139C202.948 53.2139 202.747 56.6898 198.589 56.8432ZM205.553 50.9647C198.439 52.2938 190.974 49.6868 190.974 49.6868C195.834 48.7667 197.537 49.4312 203.699 48.7667C209.911 48.1022 210.262 46.2109 210.262 46.2109C211.765 47.7444 209.661 50.1469 205.553 50.9647ZM208.408 44.6262C204 44.6262 197.787 44.6262 197.787 44.6262C197.787 44.6262 198.689 43.9106 206.805 42.6838C214.921 41.5081 216.374 37.2654 216.374 37.2654C218.679 42.5304 212.817 44.6262 208.408 44.6262ZM214.27 35.2718C210.412 36.8053 205.252 36.9076 205.252 36.9076C205.252 36.9076 212.466 33.176 215.773 31.1314C219.08 29.0867 218.178 33.6872 214.27 35.2718ZM230.552 30.0579C225.642 31.847 221.234 31.5914 221.234 31.5914C221.234 31.5914 230.502 27.1442 236.464 23.975C244.179 19.8345 246.534 26.6331 251.443 26.0708C251.443 26.0708 242.225 31.7448 231.905 31.6425L242.426 26.4797C242.426 26.4797 235.462 28.3199 230.552 30.109V30.0579Z" fill="white"/>
<path d="M242.825 56.0766H257.805C257.805 56.0766 257.053 62.6196 250.891 62.9263C244.729 63.233 246.131 59.1948 242.825 56.0766Z" fill="white"/>
<path d="M233.859 55.3577C233.859 55.3577 239.37 54.0286 241.524 59.7026C242.025 60.9294 242.726 62.1051 243.678 62.9741C243.929 63.2297 244.129 63.3319 244.129 63.3319C244.129 63.3319 241.123 63.792 238.217 59.4981C235.863 56.0733 233.859 55.3577 233.859 55.3577Z" fill="white"/>
<path d="M240.771 8.33207C240.771 8.33207 252.043 4.65164 257.304 0C257.304 0 260.059 7.41196 252.444 8.33207C247.585 8.33207 240.771 8.33207 240.771 8.33207Z" fill="white"/>
<path d="M19.7268 158.424C22.1859 158.424 24.5356 158.768 26.8307 159.455C29.1258 160.143 31.093 161.231 32.787 162.778C34.481 164.268 35.7924 166.044 36.6121 168.049C37.4318 170.055 37.869 172.289 37.869 174.868C37.869 177.561 37.4318 180.082 36.5028 182.316C35.5739 184.608 34.2077 186.499 32.4591 188.103C30.7105 189.707 28.6339 190.853 26.1749 191.598C23.7705 192.343 21.2022 192.687 18.5793 192.687C15.9563 192.687 13.4973 192.343 11.0929 191.598C8.68854 190.853 6.66668 189.707 4.8634 188.103C3.11476 186.499 1.85793 184.722 1.0929 182.774C0.327874 180.826 0 178.649 0 176.243C0 172.69 0.765031 169.596 2.34973 166.961C3.93444 164.268 6.22953 162.205 9.28965 160.716C12.3498 159.226 15.7924 158.481 19.6722 158.481L19.7268 158.424ZM19.2897 165.7C17.541 165.7 15.9017 166.159 14.4809 167.075C13.0601 167.992 11.9672 169.253 11.2022 170.857C10.4372 172.461 10.0547 174.237 10.0547 176.071C10.0547 177.79 10.3825 179.337 11.0929 180.769C11.8033 182.201 12.8416 183.29 14.317 184.092C15.7377 184.894 17.2678 185.295 18.8525 185.295C20.5465 185.295 22.1312 184.837 23.552 183.978C24.9727 183.061 26.0656 181.8 26.8307 180.196C27.5957 178.592 27.9236 176.873 27.9236 175.097C27.9236 173.378 27.5957 171.774 26.8853 170.341C26.1749 168.909 25.1913 167.763 23.8252 166.961C22.5137 166.159 20.9837 165.758 19.2897 165.758V165.7ZM43.8799 192.056L43.1149 187.587C42.9509 186.556 42.6231 185.066 42.2405 183.175L38.47 165.127L37.1039 159.054C39.0165 159.111 40.6012 159.111 41.8034 159.111C43.1695 159.111 44.6996 159.111 46.5028 159.054C46.94 161.69 47.2679 163.58 47.4865 164.841L49.399 174.581C49.7815 176.701 50.2734 179.222 50.7105 182.259L51.4755 178.878L54.2078 167.706L56.1204 159.054C58.2515 159.111 60.0002 159.111 61.4756 159.111C63.0603 159.111 64.8089 159.111 66.7761 159.054L68.2515 169.253L70.2734 182.201L71.1477 178.649C71.3117 178.019 71.4756 177.389 71.6942 176.758C71.8581 176.128 72.2953 174.868 72.8417 173.034L75.6286 163.752L76.9401 159.054C78.798 159.054 80.3281 159.054 81.5303 159.054C82.8964 159.054 84.4264 159.054 86.1204 159.054L77.2133 187.129L75.7925 192.056C73.4975 191.999 71.4756 191.999 69.7816 191.999C67.9783 191.999 65.9565 191.999 63.7707 192.056L63.2242 188.733L61.2024 177.217C61.0931 176.529 60.9838 175.784 60.9291 175.097C60.8745 174.352 60.7105 173.206 60.6013 171.659L59.7816 175.441C59.563 176.3 59.3991 177.102 59.1805 177.962L55.4646 192.056C53.1695 191.999 51.2023 191.999 49.6723 191.999C48.0329 191.999 46.1203 191.999 43.8799 192.056ZM84.9182 192.056C85.3008 188.275 85.574 185.124 85.7379 182.717C86.0658 178.363 86.2844 173.951 86.4483 169.654C86.6123 165.299 86.6669 161.804 86.6669 158.997C88.7434 159.054 90.6013 159.054 92.2407 159.054C93.3336 159.054 94.9183 159.054 96.9401 158.997L96.3937 167.763L95.6833 181.457L95.574 184.837C98.197 184.894 99.9456 184.894 100.765 184.894C104.809 184.894 107.869 184.837 109.946 184.722L109.399 191.999C105.355 191.942 101.53 191.942 97.8691 191.942C92.8964 191.942 88.5795 191.942 84.8636 191.999L84.9182 192.056ZM139.29 172.862C141.367 172.92 143.388 172.92 145.301 172.92C148.525 172.92 151.093 172.92 152.951 172.862C152.733 175.04 152.569 178.191 152.35 182.201C152.132 186.269 152.022 189.306 151.968 191.369C150.219 191.713 148.744 191.942 147.596 192.114C146.448 192.285 145.028 192.4 143.388 192.515C141.749 192.629 140.328 192.687 139.017 192.687C136.94 192.687 134.864 192.515 132.842 192.171C130.82 191.827 129.017 191.254 127.432 190.452C125.847 189.65 124.536 188.561 123.443 187.243C122.405 185.868 121.585 184.264 120.984 182.431C120.383 180.597 120.11 178.649 120.11 176.701C120.11 173.435 120.875 170.399 122.459 167.591C123.989 164.784 126.23 162.549 129.181 160.945C132.077 159.283 135.847 158.481 140.438 158.481C143.826 158.481 147.541 158.882 151.64 159.742C151.64 162.091 151.749 164.669 151.913 167.534C150.82 167.133 149.891 166.846 149.235 166.674C148.525 166.503 147.76 166.273 146.831 166.101C145.902 165.93 145.028 165.815 144.208 165.758C143.388 165.7 142.623 165.643 142.022 165.643C140.328 165.643 138.744 165.872 137.213 166.388C135.738 166.904 134.427 167.648 133.334 168.737C132.241 169.768 131.421 171.029 130.929 172.519C130.383 174.008 130.11 175.555 130.11 177.159C130.11 178.821 130.438 180.311 131.039 181.571C131.64 182.889 132.623 183.863 133.989 184.551C135.301 185.238 136.831 185.582 138.47 185.582C139.836 185.582 141.367 185.353 142.951 184.952L143.17 179.795C142.186 179.738 141.585 179.738 141.421 179.738H138.962L139.126 176.758C139.126 176.415 139.181 175.956 139.181 175.383C139.235 174.753 139.235 173.951 139.235 172.92L139.29 172.862ZM153.716 192.056C153.989 189.192 154.263 186.671 154.427 184.379C154.591 182.087 154.755 179.451 154.864 176.472C154.973 173.493 155.082 170.284 155.137 166.961C155.192 163.638 155.246 161.002 155.246 158.997C157.159 159.054 158.689 159.054 159.891 159.054C161.093 159.054 162.623 158.997 164.372 158.939C166.121 158.882 167.869 158.825 169.509 158.825C171.476 158.825 173.225 158.882 174.755 159.054C175.902 159.169 176.94 159.398 177.869 159.742C178.798 160.085 179.618 160.544 180.274 161.002C180.929 161.518 181.476 162.091 181.913 162.721C182.35 163.351 182.678 164.096 182.897 164.956C183.115 165.815 183.225 166.732 183.225 167.648C183.225 168.737 183.115 169.768 182.842 170.685C182.569 171.602 182.186 172.519 181.585 173.321C181.039 174.18 180.328 174.868 179.454 175.498C178.58 176.128 177.378 176.701 175.847 177.331L177.05 180.425C177.378 181.285 177.76 182.144 178.143 183.061L181.203 190.166C181.367 190.452 181.585 191.082 181.968 191.999C179.399 191.942 177.705 191.942 176.831 191.942C175.738 191.942 173.935 191.942 171.367 191.999C171.148 191.14 170.656 189.593 170.055 187.301C169.782 186.327 169.563 185.582 169.399 185.124C169.017 183.978 168.47 182.373 167.76 180.311L165.41 173.435C166.23 173.607 167.05 173.664 167.869 173.664C168.962 173.664 170 173.493 170.929 173.149C171.858 172.805 172.514 172.232 173.006 171.487C173.443 170.742 173.716 169.998 173.716 169.138C173.716 168.451 173.552 167.82 173.17 167.305C172.842 166.789 172.241 166.388 171.476 166.159C170.711 165.93 169.563 165.758 167.979 165.758C167.432 165.758 166.886 165.758 166.285 165.815C165.683 165.815 165.028 165.872 164.263 165.872C164.044 169.195 163.88 173.206 163.716 177.962C163.552 182.717 163.443 187.358 163.388 191.942C160.82 191.884 159.181 191.884 158.361 191.884C157.487 191.884 155.847 191.884 153.552 191.942L153.716 192.056ZM202.022 158.424C204.481 158.424 206.831 158.768 209.126 159.455C211.421 160.143 213.389 161.231 215.083 162.778C216.777 164.268 218.088 166.044 218.908 168.049C219.727 170.055 220.165 172.289 220.165 174.868C220.165 177.561 219.727 180.082 218.798 182.316C217.869 184.608 216.503 186.499 214.755 188.103C213.006 189.707 210.93 190.853 208.47 191.598C206.066 192.343 203.498 192.687 200.875 192.687C198.252 192.687 195.793 192.343 193.388 191.598C190.984 190.853 188.962 189.707 187.159 188.103C185.41 186.499 184.154 184.722 183.388 182.774C182.623 180.826 182.296 178.649 182.296 176.243C182.296 172.69 183.061 169.596 184.645 166.961C186.23 164.268 188.525 162.205 191.585 160.716C194.645 159.226 198.088 158.481 201.968 158.481L202.022 158.424ZM201.585 165.7C199.837 165.7 198.197 166.159 196.776 167.075C195.356 167.992 194.263 169.253 193.498 170.857C192.733 172.461 192.35 174.237 192.35 176.071C192.35 177.79 192.678 179.337 193.388 180.769C194.099 182.201 195.137 183.29 196.613 184.092C198.033 184.894 199.563 185.295 201.148 185.295C202.842 185.295 204.427 184.837 205.848 183.978C207.268 183.061 208.361 181.8 209.126 180.196C209.891 178.592 210.219 176.873 210.219 175.097C210.219 173.378 209.891 171.774 209.181 170.341C208.471 168.909 207.487 167.763 206.121 166.961C204.809 166.159 203.279 165.758 201.585 165.758V165.7ZM221.367 158.997C223.771 159.054 225.465 159.054 226.449 159.054C227.651 159.054 229.29 159.054 231.367 158.997L230.656 169.31C230.547 171.258 230.438 173.034 230.328 174.753C230.274 176.472 230.219 177.618 230.219 178.248C230.219 179.451 230.328 180.483 230.492 181.342C230.656 182.144 230.984 182.832 231.421 183.405C231.859 183.978 232.514 184.436 233.279 184.722C234.099 185.009 234.919 185.181 235.738 185.181C236.503 185.181 237.159 185.066 237.815 184.894C238.307 184.722 238.798 184.493 239.181 184.15C239.509 183.863 239.837 183.519 240.11 183.118C240.438 182.66 240.711 182.087 240.984 181.399C241.203 180.769 241.421 179.91 241.531 178.878C241.64 177.847 241.859 175.441 242.077 171.659C242.296 168.451 242.405 165.528 242.514 162.893C242.624 160.315 242.678 159.054 242.788 159.054C245.083 159.054 246.941 159.054 248.252 159.054H252.951L251.859 176.243C251.859 176.587 251.859 176.816 251.859 177.045C251.804 180.425 251.585 182.774 251.258 184.15C250.93 185.525 250.383 186.728 249.618 187.759C248.853 188.79 247.706 189.707 246.23 190.509C244.755 191.311 243.061 191.884 241.203 192.228C239.345 192.572 237.432 192.744 235.52 192.744C233.771 192.744 232.132 192.629 230.547 192.343C229.072 192.114 227.76 191.713 226.558 191.197C225.356 190.681 224.372 190.108 223.443 189.478C222.624 188.848 222.022 188.218 221.585 187.587C221.148 186.957 220.82 186.212 220.547 185.295C220.274 184.321 220.11 183.233 220.11 182.087C220.11 181.686 220.11 181.113 220.165 180.311C220.219 179.509 220.274 178.42 220.383 176.93L220.656 173.034C220.711 172.003 220.82 170.513 220.875 168.565L221.312 158.997H221.367ZM252.951 191.999L253.389 185.811L253.99 173.722L254.263 165.185C254.263 164.268 254.263 163.351 254.263 162.435C254.263 161.747 254.263 160.601 254.263 159.054C256.285 159.111 257.924 159.111 259.126 159.111C260.329 159.111 261.913 159.054 263.99 158.997C266.066 158.939 267.815 158.882 269.236 158.882C271.312 158.882 272.842 158.997 273.826 159.283C274.809 159.57 275.738 159.971 276.503 160.601C277.323 161.174 277.979 161.862 278.471 162.664C279.017 163.466 279.4 164.383 279.618 165.357C279.891 166.388 280.001 167.419 280.001 168.451C280.001 170.628 279.509 172.576 278.525 174.409C277.542 176.185 276.121 177.561 274.318 178.42C272.514 179.279 270.493 179.738 268.197 179.738C267.378 179.738 266.394 179.623 265.301 179.451C265.192 178.706 264.973 177.618 264.591 176.185C264.263 174.753 263.99 173.664 263.771 172.92C264.427 173.034 265.137 173.091 265.902 173.091C267.432 173.091 268.58 172.69 269.345 171.888C270.11 171.086 270.493 170.169 270.493 169.024C270.493 168.451 270.383 167.992 270.219 167.534C270.055 167.133 269.782 166.732 269.4 166.502C269.017 166.216 268.635 166.044 268.197 165.987C267.76 165.93 267.268 165.872 266.667 165.872C266.121 165.872 265.52 165.872 264.919 165.93L263.006 166.044C262.788 169.138 262.678 172.633 262.569 176.415C262.405 183.347 262.296 187.473 262.296 188.905V192.056L257.706 191.999C257.05 191.999 255.465 191.999 252.897 192.056L252.951 191.999Z" fill="white"/>
<path d="M0 216.848H1.70722V210.44L4.83718 214.363H5.1217L8.1805 210.374V216.848H9.88775V207.889H8.25165L5.05057 212.075L1.70722 207.889H0V216.848ZM15.1517 216.848H20.9137V215.344H16.859V213.055H20.3446V211.551H16.859V209.328H20.7714V207.824H15.1517V216.783V216.848ZM28.3828 212.205L24.5416 216.848H26.5333L30.2323 212.205V216.848H31.9396V212.205L35.6386 216.848H37.6304L33.7891 212.14L37.4881 207.889H35.4963L31.9396 212.14V207.889H30.2323V212.14L26.6756 207.889H24.6838L28.3828 212.205ZM40.4046 218.483H42.0407V216.914H48.8697V218.483H50.5058V215.41H49.1542V207.955H43.1078L43.0366 209.72C42.8944 213.055 41.9696 214.952 41.5428 215.41H40.4758V218.483H40.4046ZM44.5305 210.963L44.6727 209.393H47.3759V215.41H43.3212C43.6769 215.017 44.3882 213.252 44.5305 210.963ZM62.1008 207.955H60.3936L58.0461 212.99L54.845 207.955H52.9244L57.2636 214.494L57.1214 214.821C56.9079 215.214 56.6234 215.475 56.1255 215.475C55.8409 215.475 55.6986 215.41 55.4141 215.279L54.845 216.587C55.1296 216.783 55.6986 216.914 56.1966 216.914C57.4059 216.914 58.1884 216.194 58.8286 214.821L62.1719 207.955H62.1008ZM72.4154 216.914H74.1226V207.955H72.4154V211.617H67.9339V207.955H66.2266V216.914H67.9339V213.055H72.4154V216.914ZM78.1773 216.914H79.8845L80.8804 214.625H85.0774L86.0733 216.914H87.9228L83.797 207.889H82.3031L78.1773 216.914ZM83.0145 209.982L84.4372 213.186H81.5918L83.0145 209.982ZM93.6847 216.914V213.644C94.1115 213.709 94.6806 213.709 94.9651 213.709C97.3126 213.709 98.5219 212.336 98.5219 210.767C98.5219 209.262 97.5971 207.889 94.7517 207.889C94.0404 207.889 92.5466 207.889 91.9775 207.889V216.848H93.6847V216.914ZM94.894 209.393C96.0322 209.393 96.6724 209.851 96.6724 210.767C96.6724 211.748 95.8899 212.205 94.894 212.205C94.5383 212.205 94.1115 212.205 93.6847 212.14V209.393C94.1115 209.393 94.5383 209.393 94.894 209.393ZM102.292 212.401C102.292 215.214 104.497 217.045 107.343 217.045C110.259 217.045 112.464 215.083 112.464 212.401C112.464 209.589 110.259 207.758 107.343 207.758C104.355 207.758 102.292 209.786 102.292 212.401ZM104.07 212.401C104.07 210.57 105.493 209.262 107.343 209.262C109.192 209.262 110.615 210.57 110.615 212.401C110.615 214.167 109.406 215.541 107.343 215.541C105.493 215.541 104.07 214.167 104.07 212.401ZM115.452 218.483H117.088V216.914H123.917V218.483H125.553V215.41H124.202V207.955H118.155L118.084 209.72C117.942 213.055 117.017 214.952 116.59 215.41H115.523V218.483H115.452ZM119.578 210.963L119.72 209.393H122.423V215.41H118.369C118.724 215.017 119.436 213.252 119.578 210.963ZM135.939 216.914H137.646V207.955H135.939V211.617H131.457V207.955H129.75V216.914H131.457V213.055H135.939V216.914ZM150.593 216.914H152.3V207.955H150.593V216.914ZM145.613 212.401C146.823 212.401 147.534 212.925 147.534 213.84C147.534 214.887 146.894 215.41 145.613 215.41C145.258 215.41 144.973 215.41 144.688 215.344V212.401C145.044 212.336 145.4 212.336 145.613 212.336V212.401ZM144.688 207.955H142.981V216.914C143.55 216.914 144.475 216.914 145.4 216.914C147.89 216.914 149.312 215.737 149.312 213.84C149.312 212.074 148.174 210.963 145.756 210.963C145.471 210.963 145.115 210.963 144.688 211.028V207.955ZM157.635 216.914H163.397V215.41H159.342V213.121H162.828V211.617H159.342V209.393H163.255V207.889H157.635V216.848V216.914ZM180.256 216.914H181.963V207.955H174.209V216.914H175.917V209.459H180.256V216.914ZM187.298 216.914H193.06V215.41H189.006V213.121H192.491V211.617H189.006V209.393H192.918V207.889H187.298V216.848V216.914ZM199.605 216.914V213.644C200.031 213.709 200.601 213.709 200.885 213.709C203.233 213.709 204.442 212.336 204.442 210.767C204.442 209.262 203.517 207.889 200.672 207.889C199.96 207.889 198.466 207.889 197.897 207.889V216.848H199.605V216.914ZM200.814 209.393C201.952 209.393 202.592 209.851 202.592 210.767C202.592 211.748 201.81 212.205 200.814 212.205C200.458 212.205 200.031 212.205 199.605 212.14V209.393C200.031 209.393 200.458 209.393 200.814 209.393ZM208.994 216.914H214.756V215.41H210.702V213.121H214.187V211.617H210.702V209.393H214.614V207.889H208.994V216.848V216.914ZM219.594 216.914C220.163 216.979 221.443 216.979 222.297 216.979C224.36 216.979 225.925 216.129 225.925 214.298C225.925 213.121 225.142 212.401 224.217 212.205C225.071 211.878 225.64 211.224 225.64 210.178C225.64 208.935 224.786 207.955 222.439 207.955C221.443 207.955 220.163 208.02 219.594 208.02V216.979V216.914ZM222.51 213.055C223.577 213.055 224.217 213.448 224.217 214.167C224.217 215.017 223.577 215.475 222.439 215.475C221.941 215.475 221.514 215.41 221.301 215.41V213.055H222.51ZM222.368 209.393C223.293 209.393 223.933 209.786 223.933 210.505C223.933 211.355 223.293 211.682 222.51 211.682H221.372V209.393C221.656 209.393 222.083 209.328 222.439 209.328L222.368 209.393ZM230.05 212.467C230.05 215.279 232.256 217.11 235.101 217.11C238.018 217.11 240.223 215.148 240.223 212.467C240.223 209.655 238.018 207.824 235.101 207.824C232.113 207.824 230.05 209.851 230.05 212.467ZM231.829 212.467C231.829 210.636 233.251 209.328 235.101 209.328C236.951 209.328 238.373 210.636 238.373 212.467C238.373 214.233 237.164 215.606 235.101 215.606C233.251 215.606 231.829 214.233 231.829 212.467ZM247.265 217.11C249.043 217.11 250.68 216.129 250.68 214.429C250.68 213.382 250.182 212.598 248.972 212.271V212.205C249.897 211.748 250.253 210.897 250.253 210.243C250.253 208.674 249.043 207.758 247.336 207.758C245.985 207.758 244.846 208.347 244.135 209.132L245.131 210.178C245.7 209.524 246.269 209.197 247.123 209.197C247.905 209.197 248.545 209.589 248.545 210.309C248.545 211.028 247.834 211.486 247.123 211.486H246.198V212.99H247.194C248.332 212.99 248.901 213.448 248.901 214.167C248.901 215.083 248.048 215.475 247.123 215.475C246.34 215.475 245.416 215.017 244.775 214.363L243.851 215.41C244.349 216.129 245.487 216.914 247.194 216.914L247.265 217.11ZM255.517 216.979H257.224V212.336L261.207 216.979H263.413L259.145 212.205L263.128 208.02H261.065L257.224 212.271V208.02H255.517V216.979ZM268.961 216.979L274.083 210.636V216.979H275.79V208.02H274.296L269.175 214.363V208.02H267.467V216.979H268.961Z" fill="white"/>
</svg>
