<svg width="40" height="40" viewBox="0 0 40 40" fill="none" xmlns="http://www.w3.org/2000/svg">
<path d="M19.9499 0C8.9326 0 0 8.9313 0 19.9499C0 30.9685 8.9326 39.8998 19.9499 39.8998C30.9685 39.8998 39.8998 30.9672 39.8998 19.9499C39.8998 8.9326 30.9685 0 19.9499 0ZM28.0994 20.6169C27.6119 21.1045 26.8226 21.1045 26.3363 20.6169L21.1968 15.4786V28.678C21.1968 29.3663 20.6382 29.9249 19.9499 29.9249C19.2616 29.9249 18.703 29.3663 18.703 28.678V15.4786L13.5647 20.6169C13.0772 21.1045 12.2879 21.1045 11.8016 20.6169C11.3141 20.1294 11.3141 19.3402 11.8016 18.8539L18.8551 11.8004C19.1531 11.5024 19.5634 11.4089 19.9499 11.4775C20.3364 11.4089 20.7467 11.5024 21.0459 11.8004L28.0994 18.8539C28.5857 19.3414 28.5857 20.1307 28.0994 20.6169Z" fill="white"/>
</svg>
