<svg width="37" height="32" viewBox="0 0 37 32" fill="none" xmlns="http://www.w3.org/2000/svg">
<path d="M13.0425 16.9468L21.7684 24.4801C21.9117 24.6051 22.0822 24.7043 22.27 24.772C22.4579 24.8397 22.6594 24.8745 22.8629 24.8745C23.0665 24.8745 23.268 24.8397 23.4558 24.772C23.6437 24.7043 23.8142 24.6051 23.9575 24.4801C24.2447 24.2303 24.4058 23.8924 24.4058 23.5401C24.4058 23.1879 24.2447 22.8499 23.9575 22.6001L16.3263 15.9334L23.9575 9.33345C24.2447 9.08363 24.4058 8.7457 24.4058 8.39345C24.4058 8.0412 24.2447 7.70327 23.9575 7.45345C23.8147 7.32746 23.6445 7.22724 23.4566 7.15858C23.2687 7.08991 23.0669 7.05418 22.8629 7.05345C22.659 7.05418 22.4572 7.08991 22.2693 7.15858C22.0814 7.22724 21.9111 7.32746 21.7684 7.45345L13.0425 14.9868C12.886 15.1116 12.7611 15.2632 12.6757 15.4318C12.5903 15.6005 12.5462 15.7826 12.5462 15.9668C12.5462 16.1509 12.5903 16.3331 12.6757 16.5017C12.7611 16.6704 12.886 16.8219 13.0425 16.9468V16.9468Z" fill="white"/>
</svg>
