<svg width="37" height="32" viewBox="0 0 37 32" fill="none" xmlns="http://www.w3.org/2000/svg">
<path d="M23.9575 15.0532L15.2317 7.51989C15.0884 7.39491 14.9179 7.29572 14.73 7.22803C14.5421 7.16034 14.3406 7.12549 14.1371 7.12549C13.9336 7.12549 13.7321 7.16034 13.5442 7.22803C13.3563 7.29572 13.1858 7.39491 13.0425 7.51989C12.7554 7.7697 12.5942 8.10764 12.5942 8.45989C12.5942 8.81213 12.7554 9.15007 13.0425 9.39989L20.6738 16.0666L13.0425 22.6666C12.7554 22.9164 12.5942 23.2543 12.5942 23.6066C12.5942 23.9588 12.7554 24.2967 13.0425 24.5466C13.1853 24.6725 13.3556 24.7728 13.5435 24.8414C13.7313 24.9101 13.9331 24.9458 14.1371 24.9466C14.3411 24.9458 14.5428 24.9101 14.7307 24.8414C14.9186 24.7728 15.0889 24.6725 15.2317 24.5466L23.9575 17.0132C24.114 16.8884 24.2389 16.7368 24.3243 16.5682C24.4097 16.3995 24.4538 16.2174 24.4538 16.0332C24.4538 15.8491 24.4097 15.6669 24.3243 15.4983C24.2389 15.3296 24.114 15.1781 23.9575 15.0532Z" fill="white"/>
</svg>
