<svg width="100" height="100" viewBox="0 0 100 100" fill="none" xmlns="http://www.w3.org/2000/svg">
<path d="M49.8879 99.7757C77.4402 99.7757 99.7757 77.4402 99.7757 49.8879C99.7757 22.3356 77.4402 0 49.8879 0C22.3356 0 0 22.3356 0 49.8879C0 77.4402 22.3356 99.7757 49.8879 99.7757Z" fill="white"/>
<path d="M50.8014 41.9512C50.6439 41.7938 50.6439 41.5733 50.8014 41.4158L68.1235 24.1252C69.1314 23.1173 69.1314 21.4796 68.1235 20.4717L65.9819 18.3301C64.974 17.3223 63.3363 17.3223 62.3285 18.3301L45.0378 35.6208C44.8803 35.7783 44.6284 35.7783 44.5024 35.6208L40.471 31.5894L35.2114 51.2737L54.8957 46.0141L50.8014 41.9512ZM38.2664 48.1242L41.5734 35.8097L42.8961 37.1325C43.904 38.1404 45.5417 38.1404 46.5495 37.1325L63.8402 19.8418C63.9977 19.6844 64.2497 19.6844 64.3756 19.8418L66.5173 21.9835C66.6748 22.141 66.6748 22.3929 66.5173 22.5189L49.2266 39.8096L49.1951 39.8411C48.1873 40.8489 48.1873 42.4867 49.1951 43.4945L50.5179 44.8173L38.2664 48.1242Z" fill="#1E3662"/>
<path d="M47.7777 58.6434C46.7699 59.6513 46.7699 61.289 47.7777 62.2969L49.9194 64.4385C50.4233 64.9424 51.0847 65.1944 51.7461 65.1944C52.4075 65.1944 53.0689 64.9424 53.5728 64.4385L70.8635 47.1478C71.0209 46.9903 71.2729 46.9903 71.3989 47.1478L75.4302 51.1792L80.6899 31.4949L61.0056 36.7545L65.0369 40.7859C65.1314 40.8803 65.1629 41.0063 65.1629 41.0693C65.1629 41.1323 65.1629 41.1953 65.1314 41.2583L47.7777 58.6434ZM66.6432 39.2426L65.3204 37.9198L77.6349 34.6129L74.3279 46.9274L73.0051 45.6046C71.9973 44.5967 70.3596 44.5967 69.3517 45.6046L52.061 62.8953C51.9036 63.0527 51.6516 63.0527 51.5256 62.8953L49.384 60.7536C49.2265 60.5961 49.2265 60.3442 49.384 60.2182L66.2652 43.3369H66.2967L66.7061 42.9275C67.1786 42.4236 67.462 41.7937 67.462 41.1008C67.399 40.3764 67.1156 39.7465 66.6432 39.2426Z" fill="#1E3662"/>
<path d="M76.9105 72.6273L65.0685 65.6354C63.1473 64.5016 60.7537 64.6275 58.99 65.9503L53.4154 70.0762C51.9981 71.147 50.0769 71.2415 48.5651 70.3281C40.7544 65.6039 34.1405 58.99 29.4163 51.1792C28.5029 49.6675 28.5974 47.7463 29.6367 46.329L33.7626 40.7544C35.0853 38.9592 35.2113 36.5656 34.0775 34.6759L27.1486 22.8653C26.2353 21.3221 24.755 20.2198 22.9913 19.7474C21.2276 19.3064 19.4324 19.5584 17.8576 20.4717C17.3852 20.7552 16.9128 21.1016 16.5349 21.5111C8.47217 29.5738 7.21238 42.2977 13.5428 51.7776L15.4325 54.5807C23.3063 66.4228 33.3216 76.4381 45.1637 84.3119L47.9982 86.2015C52.0296 88.8786 56.6593 90.2014 61.2891 90.2014C67.4936 90.2014 73.6666 87.8078 78.2963 83.178C79.5876 81.8867 80.2805 80.186 80.2805 78.3908C80.2805 76.5956 79.5876 74.8949 78.2963 73.6036C77.8554 73.2571 77.4145 72.9107 76.9105 72.6273ZM76.6901 81.6663C69.3833 88.9731 57.8246 90.1384 49.195 84.4063L46.3605 82.5166C34.7704 74.8004 24.9755 65.0055 17.2277 53.3839L15.3381 50.5808C9.63749 41.9512 10.7713 30.3926 18.1096 23.0858C18.3931 22.8024 18.6765 22.5819 19.023 22.3929C19.7473 21.9835 20.5347 21.763 21.3536 21.763C21.7315 21.763 22.1095 21.826 22.4874 21.9205C23.6842 22.2355 24.6605 22.9598 25.2904 24.0307L32.2508 35.8727C32.9437 37.0065 32.8492 38.4553 32.0618 39.5261L27.936 45.1007C26.3298 47.2424 26.2038 50.1084 27.5896 52.4075C32.4713 60.5332 39.3686 67.3991 47.4628 72.2808C49.762 73.6666 52.628 73.5091 54.7696 71.9344L60.3442 67.8085C61.4151 67.0212 62.8638 66.9267 63.9976 67.6196L75.8397 74.6114C76.1547 74.8004 76.4696 75.0524 76.7531 75.3043C77.6034 76.1547 78.1073 77.32 78.1073 78.5168C78.1073 79.7136 77.5719 80.8159 76.6901 81.6663Z" fill="#1E3662"/>
</svg>
