<svg width="100" height="100" viewBox="0 0 100 100" fill="none" xmlns="http://www.w3.org/2000/svg">
<path d="M44.6273 36.9901C45.0367 36.6752 45.5721 36.5807 46.0446 36.7382C46.8634 36.9586 47.7138 36.8327 48.4382 36.3602C49.0681 36.0138 49.698 35.6359 50.2964 35.2579C50.3279 35.2264 50.3594 35.2264 50.4224 35.1949C51.3042 34.628 51.5562 33.4312 50.9893 32.5494C48.5012 28.3605 46.0131 24.1402 43.525 19.9514C43.4935 19.8884 43.462 19.8569 43.4305 19.7939C42.8636 18.9121 41.6668 18.6601 40.7849 19.227C40.218 19.542 39.6826 19.9199 39.1157 20.2349C37.7299 21.0537 37.0685 22.3765 37.3835 23.9827C37.4465 24.3922 37.289 24.4552 37.0055 24.4867C36.5331 24.5497 36.0292 24.5182 35.5568 24.3292C35.0214 24.1087 34.5174 23.9198 33.982 23.6993C33.0687 23.2899 32.0293 23.1954 31.053 23.4473C30.2341 23.6678 29.3838 23.8568 28.5334 24.1087C28.1555 24.2347 27.7145 24.2032 27.3681 23.9827C26.0768 23.1639 24.4391 23.0379 23.0218 23.6993C22.4864 23.9198 21.9195 24.1402 21.3841 24.3292C20.6282 24.6126 19.7778 24.5497 19.0535 24.1717C18.7385 24.0457 18.518 23.7308 18.581 23.3843C18.644 22.156 18.0141 20.9907 16.9748 20.3608C16.4079 19.9829 15.8095 19.6365 15.2111 19.3215C14.0773 18.6601 13.0064 18.9751 12.345 20.0459C11.6837 21.1167 11.0538 22.219 10.4239 23.2899C8.59716 26.3449 6.80195 29.3999 5.00674 32.4549C4.47133 33.3682 4.43983 34.3131 5.13272 34.88C6.10906 35.7933 7.30587 36.4547 8.59716 36.8012C9.38453 36.9586 10.2034 36.8327 10.8648 36.4232C11.0223 36.3287 11.2112 36.3287 11.3372 36.4547C11.5262 36.6122 11.3057 36.7382 11.2427 36.8327C11.0853 37.0846 10.8963 37.3051 10.7388 37.557C10.0144 38.4704 9.91994 39.6987 10.4554 40.738C10.9278 41.7774 12.0301 42.4387 13.1639 42.3443H13.1954C13.4159 42.3128 13.6048 42.4702 13.6363 42.6907C13.9828 43.982 15.2111 44.8638 16.5654 44.8009C16.9118 44.8009 16.9748 44.9268 17.0693 45.2103C17.5417 46.722 19.1164 47.5724 20.6282 47.163C21.0061 47.0685 21.1006 47.163 21.2896 47.4464C22.14 48.8952 23.9982 49.4621 25.2894 48.4858C26.1083 47.8559 26.6122 48.0763 27.2736 48.5487C27.5886 48.7692 27.935 48.9582 28.2815 49.1472C28.7224 49.3991 29.1948 49.5251 29.6672 49.5566C31.179 49.5881 32.2498 48.6747 32.7537 47.0055C35.1158 47.7929 36.4071 47.163 37.1945 44.8639C37.2575 44.6749 37.352 44.6749 37.5409 44.6749C39.3362 44.7694 40.3125 44.108 40.8794 42.3758C40.9739 42.1553 41.0369 42.0608 41.2888 42.1553C41.8557 42.3128 42.4856 42.3128 43.0211 42.0923C43.2415 42.0293 43.4305 41.9348 43.6195 41.8088C45.0052 40.9585 45.4147 39.1318 44.5643 37.746C44.2494 37.2736 44.3123 37.1791 44.6273 36.9901ZM10.6443 34.0926C10.0459 35.1004 9.13257 35.3209 8.12474 34.754C7.65231 34.502 7.24288 34.1871 6.77045 33.9666C6.29803 33.7462 6.32953 33.5572 6.54999 33.1478C8.56566 29.7778 10.5813 26.3764 12.597 22.9749C12.9749 22.3135 13.3844 21.6521 13.7623 20.9907C13.9198 20.7073 14.0773 20.6443 14.3607 20.8333C14.8961 21.1797 15.4315 21.4632 15.967 21.8096C16.4709 22.0931 16.7858 22.66 16.7858 23.2269C16.7858 23.6048 16.6598 23.9513 16.4709 24.2662C14.5182 27.5417 12.5655 30.8171 10.6443 34.0926ZM13.8253 40.2026C13.6363 40.4231 13.3214 40.5491 13.0379 40.5176C12.408 40.5491 11.8411 40.0451 11.8096 39.4152C11.8096 39.1948 11.8411 38.9428 11.9671 38.7538C12.3765 38.0925 12.8175 37.4941 13.2899 36.8956C13.6678 36.4232 14.3607 36.3602 14.8331 36.7067C15.3371 37.0216 15.526 37.683 15.2426 38.2184C14.8016 38.9113 14.3292 39.5727 13.8253 40.2026ZM17.2897 42.5647C17.1008 42.8167 16.7858 42.9742 16.4394 43.0056C15.4945 43.0056 14.8646 41.9978 15.3686 41.2419C16.1874 39.9821 17.1008 38.7538 17.9826 37.557C18.3606 37.0846 19.0849 36.9901 19.5574 37.3681C20.0928 37.7145 20.2188 38.4074 19.8723 38.9428C19.0535 40.1711 18.1716 41.3679 17.2897 42.5647ZM20.8487 44.8324C20.3762 45.4623 19.6834 45.6197 19.1164 45.2103C18.5495 44.8009 18.4551 44.0765 18.896 43.4466C19.6834 42.3128 20.5022 41.2104 21.2896 40.1081C21.573 39.6357 22.1714 39.4467 22.6754 39.6357C23.1478 39.7932 23.4942 40.2341 23.4942 40.738C23.4627 41.0215 23.3683 41.3049 23.1793 41.5569C22.3919 42.6592 21.636 43.73 20.8487 44.8324ZM25.6044 45.3363C25.3209 45.8087 24.9745 46.2496 24.628 46.6591C24.3131 47.0685 23.7462 47.1945 23.3053 46.974C22.8328 46.785 22.5179 46.2811 22.5494 45.7772C22.5494 45.5882 22.6124 45.4308 22.7069 45.2733C23.0218 44.8324 23.3368 44.3599 23.6832 43.9505C24.0926 43.4466 24.8485 43.3836 25.3524 43.8245C25.8249 44.2025 25.9193 44.8639 25.6044 45.3363ZM43.1155 39.3837C43.0525 39.8877 42.6431 40.2656 42.1392 40.3601C41.7613 40.3916 41.3833 40.2971 41.0999 40.0766C38.6748 38.6279 36.2497 37.1791 33.7931 35.7618C33.6356 35.6673 33.5096 35.5729 33.3206 35.5099C32.9112 35.3209 32.4073 35.5099 32.2183 35.9508C31.9979 36.3287 32.1238 36.8012 32.4703 37.0531C32.6277 37.1791 32.7852 37.2736 32.9742 37.3681L38.3913 40.5805C38.8952 40.801 39.1787 41.3679 39.0527 41.9033C38.9582 42.4387 38.5173 42.8167 38.0134 42.8797C37.6669 42.8797 37.3205 42.7852 37.0055 42.5647C35.1473 41.4624 33.2891 40.3601 31.4309 39.2578C31.116 39.0058 30.6436 39.0058 30.3286 39.2578C30.0452 39.4782 29.9192 39.8562 30.0137 40.2026C30.0767 40.5491 30.3601 40.7065 30.6436 40.864C31.9664 41.6514 33.3206 42.4387 34.6434 43.2261C35.1158 43.4466 35.3993 43.9505 35.3678 44.4544C35.3048 45.3678 34.36 45.8087 33.5096 45.3363C32.2813 44.6434 31.116 43.919 29.9192 43.1946C29.7617 43.1001 29.6042 43.0057 29.4468 42.9427C29.0373 42.7222 28.5019 42.8797 28.2815 43.2891C28.0295 43.6985 28.1555 44.234 28.5649 44.4544C29.0688 44.8009 29.6042 45.0843 30.1397 45.3993C30.864 45.8402 31.0845 46.5016 30.7381 47.1315C30.3916 47.7614 29.6672 47.9188 28.9428 47.4779C28.4389 47.1945 27.935 46.848 27.4311 46.5961C27.1791 46.4386 27.1476 46.3441 27.2736 46.0607C28.0295 44.2969 27.2736 42.5962 25.4469 41.9348C25.132 41.8403 25.132 41.7144 25.195 41.4309C25.5729 39.4467 24.2816 37.8405 22.2344 37.809C22.014 37.8405 21.7935 37.683 21.762 37.4626C21.2896 35.8878 19.6834 35.006 18.1086 35.4784C17.7622 35.5729 17.4472 35.7618 17.1323 35.9823C16.8803 36.1713 16.7858 36.2028 16.5654 35.9193C15.7465 34.817 14.2662 34.439 13.0379 35.006C12.8175 35.1004 12.597 35.2579 12.408 35.006C12.2191 34.754 12.471 34.628 12.5655 34.4705C14.2347 31.636 15.9355 28.8015 17.5732 25.9669C17.7937 25.6205 17.9196 25.5575 18.2661 25.778C19.4314 26.4393 20.8487 26.5023 22.077 25.9984C22.7384 25.7465 23.4312 25.463 24.1241 25.2425C24.817 24.9906 25.5729 25.0536 26.2028 25.4C25.195 26.5338 25.1635 27.8881 25.195 29.3054C25.2265 30.0613 25.195 30.8486 25.195 31.6045C25.195 33.3367 26.2973 34.1871 27.9665 33.7777C29.1633 33.5257 30.1711 32.7068 30.6436 31.573C30.801 31.2266 30.8955 31.2581 31.179 31.4155C34.8954 33.6202 38.6433 35.8563 42.3597 38.061C42.8951 38.3444 43.21 38.7538 43.1155 39.3837ZM42.5801 29.6833C42.4541 29.3999 42.2022 29.1794 41.8872 29.0849C41.5408 28.9904 41.1944 29.1479 41.0054 29.4314C40.7534 29.7463 40.7534 30.2187 41.0054 30.5337C41.8872 32.0139 42.7376 33.4942 43.6195 34.943C43.8399 35.3209 43.7769 35.4154 43.462 35.6988C42.8636 36.1713 42.4227 36.0453 41.8243 35.6673C38.2023 33.4942 34.5804 31.3525 30.9585 29.2109C29.9192 28.581 29.4153 28.833 29.2893 30.0613C29.1633 31.1636 28.4074 31.951 27.4626 32.0769C27.1161 32.1084 26.9902 32.0139 27.0217 31.6675C27.0532 31.0376 27.0217 30.4392 27.0217 29.8408C27.0217 29.3369 27.0217 28.833 27.0217 28.2975C27.0217 26.9118 27.6201 26.1559 28.9743 25.8094C29.7617 25.6205 30.5491 25.4315 31.305 25.211C31.9978 25.0221 32.7222 25.0536 33.3836 25.3685C34.297 25.7465 35.1788 26.1874 36.1552 26.2504C36.7536 26.3134 37.3835 26.2504 37.9504 26.0299C38.1393 25.9039 38.3598 25.9669 38.4858 26.1559C38.5173 26.1874 38.5173 26.2504 38.5488 26.2819C38.6433 26.4708 38.7378 26.6283 38.8637 26.7858C39.1157 27.2267 39.6511 27.3842 40.092 27.1322C40.5015 26.8803 40.6589 26.3449 40.4385 25.9354C40.4385 25.9354 40.4385 25.9039 40.407 25.9039C40.1235 25.3685 39.7771 24.8646 39.4936 24.3292C38.8637 23.2269 39.0842 22.345 40.155 21.6836C40.596 21.4317 41.0684 21.2112 41.4778 20.8963C41.8872 20.5813 42.0132 20.7388 42.2337 21.0852C43.9974 24.1087 45.7926 27.1007 47.5563 30.0928C48.1547 31.1321 48.7531 32.1714 49.383 33.1793C49.572 33.4942 49.6035 33.6832 49.2255 33.8721C48.7216 34.1241 48.2492 34.439 47.7453 34.7225C46.7689 35.2894 45.8556 35.0374 45.2572 34.0926C44.3438 32.6438 43.462 31.1636 42.5801 29.6833Z" fill="#1E3662"/>
<path d="M13.6047 53.462C14.2031 53.462 14.7071 52.958 14.7071 52.3596C14.7071 51.7612 14.2031 51.2573 13.6047 51.2573C11.5576 51.2573 9.66789 52.0447 8.21912 53.4935C6.77036 54.9422 5.98299 56.8319 5.98299 58.8476C5.98299 60.8948 6.77036 62.7845 8.21912 64.2332C9.66789 65.682 11.5576 66.4693 13.6047 66.4693C17.7936 66.4693 21.195 63.0679 21.195 58.8476C21.195 58.2492 20.6911 57.7453 20.0927 57.7453C19.4943 57.7453 18.9904 58.2492 18.9904 58.8476C18.9904 61.8396 16.5653 64.2647 13.5733 64.2647C12.1245 64.2647 10.7702 63.6978 9.76237 62.69C8.75454 61.6821 8.18763 60.3279 8.18763 58.8791C8.18763 57.4303 8.75454 56.076 9.76237 55.0682C10.8017 53.9974 12.156 53.462 13.6047 53.462Z" fill="#1E3662"/>
<path d="M20.9117 53.0524C20.4707 52.6114 19.7778 52.6114 19.3369 53.0524L13.8883 58.501L11.8726 56.4853C11.4317 56.0444 10.7388 56.0444 10.2979 56.4853C9.85695 56.9262 9.85695 57.6191 10.2979 58.0286L12.849 60.5482C13.1324 60.8316 13.5104 60.9891 13.8883 60.9891C14.2662 60.9891 14.6442 60.8631 14.9276 60.5796L20.9117 54.5956C21.3211 54.1862 21.3211 53.4933 20.9117 53.0524Z" fill="#1E3662"/>
<path d="M32.9111 9.08574C33.5095 9.08574 34.0134 8.58183 34.0134 7.98342C34.0134 7.38502 33.5095 6.8811 32.9111 6.8811H10.1718C9.19546 6.8811 8.43958 7.57399 8.43958 8.45585V11.7628C8.43958 12.6447 9.22695 13.3376 10.1718 13.3376H25.7303C26.3287 13.3376 26.8326 12.8336 26.8326 12.2352C26.8326 11.6368 26.3287 11.1329 25.7303 11.1329H10.6442V9.08574H32.9111Z" fill="#1E3662"/>
<path d="M9.51029 17.1482H25.7617C26.3601 17.1482 26.864 16.6443 26.864 16.0459C26.864 15.4475 26.3601 14.9436 25.7617 14.9436H9.51029C8.91189 14.9436 8.40797 15.4475 8.40797 16.0459C8.40797 16.6443 8.91189 17.1482 9.51029 17.1482Z" fill="#1E3662"/>
<path d="M66.7997 26.4393C65.3509 25.6519 63.7447 26.0929 62.7368 27.6046C62.5479 27.8881 62.4849 28.4235 62.0754 28.3605C60.9731 28.2345 60.7527 29.0849 60.3432 29.7463C59.8078 30.6281 59.2724 31.51 58.8 32.3918C58.5165 32.9273 58.2331 33.2737 57.6032 32.8013C57.0363 32.3604 56.4693 32.4548 56.1229 33.0532C56.0599 33.1162 56.0284 33.2107 55.9969 33.3052C55.8394 33.8091 56.1229 34.3445 56.6268 34.502C57.3512 34.8169 57.1937 35.1634 56.8788 35.7303C54.5167 39.8561 52.0286 43.919 49.8239 48.1078C49.6979 48.0763 49.572 48.0448 49.446 48.0448H38.2023C37.6039 48.0448 37.1 48.5487 37.1 49.1471C37.1 49.7455 37.6039 50.2494 38.2023 50.2494H48.7216C48.4382 50.8163 48.1862 51.3833 47.9027 51.9187H26.9272C26.3288 51.9187 25.8248 52.4226 25.8248 53.021C25.8248 53.6194 26.3288 54.1233 26.9272 54.1233H46.9264C46.4855 55.0996 46.1075 56.1075 45.7296 57.1153C45.3517 58.1232 45.0682 59.0365 45.5406 60.0443C45.7296 60.3278 45.6981 60.7372 45.4461 60.9892C44.8162 61.7136 44.2178 62.5009 43.5564 63.2883C42.958 62.312 42.8951 61.1152 41.7297 60.6427C40.4385 60.1388 39.7141 61.0522 38.8952 61.7766C38.7692 60.5798 38.6433 59.5089 38.6118 58.4381C38.5488 57.2413 38.0448 56.4224 36.848 56.2335C35.6512 56.0445 34.9584 56.7689 34.5804 57.8712C33.856 60.1073 33.1316 62.375 32.3443 64.5796C32.0923 65.304 32.0293 65.9339 32.8167 66.2488C33.73 66.5953 34.0135 65.8709 34.2025 65.241C34.8639 63.3198 35.4938 61.3671 36.1237 59.4144C36.2181 59.1625 36.1237 58.7531 36.5961 58.7846C36.6276 59.383 36.6591 59.9184 36.7221 60.5483C36.7851 61.1467 36.8165 61.7766 36.911 62.4065C36.9425 62.6584 37.037 62.9104 37.163 63.1308C37.6984 64.0757 38.8952 64.4221 39.8401 63.8867C40.344 63.6348 40.5014 63.0679 41.0369 62.6899C41.1943 63.1308 41.3518 63.4773 41.4778 63.7922C42.2967 65.6819 43.8714 65.9339 45.2257 64.3591C45.7296 63.7922 46.202 63.1938 46.6429 62.5639C46.9894 61.9655 47.6193 61.6506 48.2807 61.7136C49.446 61.7766 50.2964 61.1152 50.8633 60.1073C51.4617 59.068 52.1546 58.0602 52.9419 57.1783C54.7056 55.1626 56.2489 52.958 57.5402 50.6274C59.5558 46.9425 61.729 43.3836 63.7762 39.6987C64.3431 38.6593 64.8155 39.0688 65.3509 39.5727C65.9493 40.1396 65.6029 40.7065 65.2879 41.2734C64.0911 43.3521 62.8628 45.4307 61.666 47.5094C61.3196 48.1078 61.1306 48.7062 61.8235 49.1471C62.5164 49.588 62.9888 49.1786 63.3352 48.5802C64.658 46.3126 65.9808 44.0449 67.2406 41.7458C67.902 40.549 67.776 38.9113 66.7367 38.3444C64.721 37.305 65.7603 36.2657 66.4532 35.1319C66.8312 34.4705 67.1776 33.8091 67.587 33.1792C67.839 32.8013 67.9965 32.3603 67.776 32.0454C67.3666 31.4785 67.6815 31.0691 67.902 30.5966C68.7523 28.9589 68.2484 27.2267 66.7997 26.4393ZM48.3122 59.7924C48.2807 59.7924 48.2492 59.7924 48.1862 59.7924C47.6508 59.7609 47.2414 59.2885 47.2728 58.7531C47.2728 58.7216 47.2728 58.6901 47.2728 58.6586C47.3043 58.1232 47.6193 57.6507 48.0917 57.3988C48.5956 57.8712 49.509 57.9342 49.509 58.5641C49.5405 59.2255 49.0051 59.7924 48.3122 59.7924ZM51.6821 55.6351C51.0522 56.6429 50.4223 56.6744 49.4775 56.013C48.8791 55.5721 48.8161 55.2886 49.0681 54.6272C50.2019 51.5407 50.2019 51.5407 52.9734 53.3044C53.0679 53.3674 53.1939 53.4619 53.3199 53.5879C52.753 54.2493 52.186 54.9107 51.6821 55.6351ZM61.0676 40.5175C59.0519 44.0135 57.0363 47.5409 54.9891 51.0368C54.8316 51.3203 54.8001 51.7612 54.2962 51.8242C53.2884 51.1943 52.186 50.5644 51.1782 49.8715C50.9892 49.7455 51.2727 49.3991 51.4302 49.2101C53.8553 45.0213 56.2804 40.801 58.674 36.6122C58.9889 36.0452 59.2409 36.0138 59.7763 36.2972C62.6108 37.7775 62.6423 37.7775 61.0676 40.5175ZM63.6187 36.0138C63.4927 36.2027 63.3037 36.0138 63.1463 35.9508C62.9888 35.8878 62.8313 35.7618 62.6738 35.6988C59.8078 34.0926 59.7448 33.8091 61.792 31.195C61.8865 31.1006 61.918 30.9431 62.0439 30.8801C62.3274 30.7226 65.4454 32.5178 65.4769 32.9588C64.91 33.9036 64.2801 34.9744 63.6187 36.0138ZM65.5714 30.3132C65.0045 30.2187 64.1226 29.9982 64.1541 29.2109C64.1856 28.5495 64.721 28.0456 65.3824 28.077H65.4139C66.0123 28.1085 66.3587 28.518 66.3902 29.1794C66.2013 29.5888 66.1068 30.4077 65.5714 30.3132Z" fill="#1E3662"/>
<path d="M53.9497 59.0995C53.3513 59.0995 52.8474 59.6034 52.8474 60.2018V68.0126C52.8474 68.5165 52.438 68.9574 51.9026 68.9574H4.06184C3.55792 68.9574 3.11699 68.548 3.11699 68.0126V3.95198C3.11699 3.44806 3.52643 3.00713 4.06184 3.00713H40.2809C40.2809 3.03863 40.2809 3.03863 40.2809 3.07012V12.7076C40.2809 14.2508 41.5407 15.4791 43.084 15.4791H52.7529V34.4705C52.7529 35.0689 53.2568 35.5728 53.8552 35.5728C54.4536 35.5728 54.9576 35.0689 54.9576 34.4705V15.2271C54.9576 14.4083 54.6111 13.6209 54.0442 13.0225L42.7375 1.71584C42.1391 1.11744 41.3518 0.80249 40.5329 0.80249H4.06184C2.32962 0.80249 0.912354 2.21976 0.912354 3.95198V68.0126C0.912354 69.7448 2.32962 71.162 4.06184 71.162H51.9026C53.6348 71.162 55.052 69.7448 55.052 68.0126V60.2018C55.052 59.5719 54.5796 59.0995 53.9497 59.0995ZM51.1782 13.306H43.0525C42.7375 13.306 42.4541 13.054 42.4541 12.7076V4.58188L51.1782 13.306Z" fill="#1E3662"/>
</svg>
