<svg width="100" height="100" viewBox="0 0 100 100" fill="none" xmlns="http://www.w3.org/2000/svg">
<path d="M49.8879 99.7757C77.4402 99.7757 99.7757 77.4402 99.7757 49.8879C99.7757 22.3356 77.4402 0 49.8879 0C22.3356 0 0 22.3356 0 49.8879C0 77.4402 22.3356 99.7757 49.8879 99.7757Z" fill="white"/>
<path d="M27.5265 30.6761H29.5422V58.612C29.5107 59.1789 29.9516 59.6514 30.5185 59.6829C31.0854 59.7144 31.5579 59.2734 31.5894 58.738V30.7076H46.9903V41.9827C46.9903 42.5497 47.4628 42.9906 48.0297 42.9906C48.1871 42.9906 48.3446 42.9591 48.4706 42.8646L53.4783 40.3765L58.486 42.8646C58.9899 43.1166 59.6198 42.8961 59.8717 42.3922C59.9347 42.2662 59.9662 42.1087 59.9662 41.9512V30.6761H75.3672V60.6592C75.3672 61.2261 75.8396 61.667 76.3751 61.667C76.9105 61.667 77.3829 61.1946 77.3829 60.6592V30.6761C78.2018 30.5816 80.4379 31.117 80.4064 29.6682V18.708C80.4064 18.1411 79.9655 17.6687 79.3986 17.6687H27.5265C26.9596 17.6687 26.5187 18.1411 26.5187 18.708V29.6368C26.4872 30.2037 26.9596 30.6761 27.5265 30.6761ZM59.9347 19.7474H78.3592V28.6289H59.9347V19.7474ZM49.006 19.7474H57.8876V40.282C56.4388 39.4946 54.9585 38.8018 53.4468 38.1719C51.935 38.8018 50.4548 39.4946 49.006 40.282V19.7474ZM28.5343 19.7474H46.9589V28.6289H28.5343V19.7474ZM82.3906 67.8085C81.5717 67.1786 80.5009 67.0527 79.5245 67.4306C79.871 66.2023 79.3356 64.8795 78.2648 64.1866C76.879 63.1158 74.7688 64.0292 71.2729 65.5409C68.6273 66.7377 65.8873 67.7456 63.0842 68.5644C62.1394 67.2416 60.6276 66.4543 58.9899 66.4543C49.5414 66.6117 47.9667 65.6669 46.14 64.5961C43.8094 63.2418 41.1638 61.667 25.6998 61.667H17.1017C16.5348 61.667 16.0939 62.1395 16.0939 62.7064V81.1309C16.0939 81.6978 16.5663 82.1387 17.1017 82.1387H25.5423C38.4867 86.674 65.5093 87.6503 81.1623 74.1705C82.2961 73.5406 85.3826 70.2022 82.3906 67.8085ZM24.692 80.0915H18.141V63.7142H24.692V80.0915ZM63.7456 70.5171C68.4069 69.4778 73.446 66.2023 77.0365 65.8244C80.3749 68.7219 67.84 71.8399 63.6511 73.0997C63.8716 72.2178 63.9031 71.3675 63.7456 70.5171ZM79.9655 72.5328C59.0214 89.1621 31.4319 81.7923 26.7706 80.3435V63.6827C40.7544 63.7457 43.085 65.1 45.1321 66.3283C47.2423 67.5566 49.069 68.6274 59.0844 68.4699C60.6276 68.4699 61.8559 69.6982 61.8559 71.2415C61.8559 71.4934 61.8244 71.7139 61.7614 71.9344C61.7299 72.2493 61.6984 73.1312 59.8717 73.8871C57.8561 74.6744 53.7617 75.3043 44.4393 74.1075C43.8724 74.0445 43.3684 74.4855 43.3369 75.0524C43.3054 75.5878 43.6519 76.0602 44.1873 76.1547C54.8011 78.5483 69.3517 74.1705 76.564 70.7376C78.6742 69.8242 80.6584 69.0053 81.0678 69.3833C82.548 70.4856 80.6269 71.9974 79.9655 72.5328ZM21.4165 66.0448C21.9834 66.0448 22.4558 66.4858 22.4558 67.0527C22.4558 67.6196 22.0149 68.092 21.448 68.092C20.8811 68.092 20.4087 67.6511 20.4087 67.0842C20.3772 66.5173 20.8496 66.0448 21.4165 66.0448Z" fill="#1E3662"/>
</svg>
