<svg width="100" height="100" viewBox="0 0 100 100" fill="none" xmlns="http://www.w3.org/2000/svg">
<path d="M49.8879 99.7757C77.4402 99.7757 99.7757 77.4402 99.7757 49.8879C99.7757 22.3356 77.4402 0 49.8879 0C22.3356 0 0 22.3356 0 49.8879C0 77.4402 22.3356 99.7757 49.8879 99.7757Z" fill="white"/>
<path d="M88.0282 59.62C87.4298 59.62 86.9259 60.1239 86.9259 60.7223V61.4152H83.8079V35.243C83.8079 33.4793 82.3591 32.0305 80.5954 32.0305H19.1489C17.3852 32.0305 15.9364 33.4793 15.9364 35.243V60.5019H12.8184V59.809C12.8184 59.2106 12.3145 58.7067 11.7161 58.7067C11.1177 58.7067 10.6138 59.2106 10.6138 59.809V63.4624C10.6138 64.0608 11.1177 64.5647 11.7161 64.5647C12.3145 64.5647 12.8184 64.0608 12.8184 63.4624V62.7695H15.9364V63.1475C15.9364 64.9112 17.3852 66.3599 19.1489 66.3599H21.385C20.1567 67.4308 19.3694 68.974 19.3694 70.7377C19.3694 72.344 19.9993 73.7612 21.0701 74.8321H11.7161C11.1177 74.8321 10.6138 75.336 10.6138 75.9344C10.6138 76.5328 11.1177 77.0367 11.7161 77.0367H15.9364V79.7138C15.9364 80.3122 16.4403 80.8161 17.0387 80.8161C17.6371 80.8161 18.1411 80.3122 18.1411 79.7138V77.0052H24.1566V79.6823C24.1566 80.2807 24.6605 80.7846 25.2589 80.7846C25.8573 80.7846 26.3612 80.2807 26.3612 79.6823V77.0052H32.3767V79.6823C32.3767 80.2807 32.8807 80.7846 33.4791 80.7846C34.0775 80.7846 34.5814 80.2807 34.5814 79.6823V77.0052H40.5969V79.6823C40.5969 80.2807 41.1008 80.7846 41.6992 80.7846C42.2976 80.7846 42.8015 80.2807 42.8015 79.6823V77.0052H48.8171V79.6823C48.8171 80.2807 49.321 80.7846 49.9194 80.7846C50.5178 80.7846 51.0217 80.2807 51.0217 79.6823V77.0052H57.0372V79.6823C57.0372 80.2807 57.5411 80.7846 58.1396 80.7846C58.738 80.7846 59.2419 80.2807 59.2419 79.6823V77.0052H65.2574V79.6823C65.2574 80.2807 65.7613 80.7846 66.3597 80.7846C66.9581 80.7846 67.462 80.2807 67.462 79.6823V77.0052H73.4776V79.6823C73.4776 80.2807 73.9815 80.7846 74.5799 80.7846C75.1783 80.7846 75.6822 80.2807 75.6822 79.6823V77.0052H81.6977V79.6823C81.6977 80.2807 82.2016 80.7846 82.8 80.7846C83.3984 80.7846 83.9024 80.2807 83.9024 79.6823V77.0052H88.0282C88.6266 77.0052 89.1305 76.5013 89.1305 75.9029C89.1305 75.3045 88.6266 74.8006 88.0282 74.8006H78.6742C79.7135 73.7612 80.3749 72.3125 80.3749 70.7062C80.3749 68.974 79.5876 67.3993 78.3593 66.3284H80.5954C82.2016 66.3284 83.5244 65.1631 83.7764 63.6199H86.9259V64.3128C86.9259 64.9112 87.4298 65.4151 88.0282 65.4151C88.6266 65.4151 89.1305 64.9112 89.1305 64.3128V60.6909C89.1305 60.1239 88.6266 59.62 88.0282 59.62ZM69.6352 73.7927C69.8556 74.1707 70.1391 74.5171 70.4226 74.8006H68.8163C69.1313 74.5171 69.4147 74.1707 69.6352 73.7927ZM70.958 70.7377C70.958 68.7535 72.5642 67.1473 74.5484 67.1473C76.5326 67.1473 78.1388 68.7535 78.1388 70.7377C78.1388 72.7219 76.5326 74.3281 74.5484 74.3281C72.5642 74.3281 70.958 72.7219 70.958 70.7377ZM64.722 74.3281C62.7378 74.3281 61.1316 72.7219 61.1316 70.7377C61.1316 68.7535 62.7378 67.1473 64.722 67.1473C66.7062 67.1473 68.3124 68.7535 68.3124 70.7377C68.3124 72.7219 66.7062 74.3281 64.722 74.3281ZM58.9269 70.7377C58.9269 72.344 59.5568 73.7612 60.6276 74.8321H39.1796C40.219 73.7927 40.8804 72.344 40.8804 70.7377C40.8804 69.0055 40.093 67.4308 38.8647 66.3599H60.9426C59.7143 67.4308 58.9269 68.974 58.9269 70.7377ZM25.1959 74.3281C23.2117 74.3281 21.6055 72.7219 21.6055 70.7377C21.6055 68.7535 23.2117 67.1473 25.1959 67.1473C27.1801 67.1473 28.7863 68.7535 28.7863 70.7377C28.7863 72.7219 27.1801 74.3281 25.1959 74.3281ZM30.1091 73.7927C30.3296 74.1707 30.613 74.5171 30.8965 74.8006H29.2902C29.6367 74.5171 29.8886 74.1707 30.1091 73.7927ZM35.0223 67.1473C37.0065 67.1473 38.6127 68.7535 38.6127 70.7377C38.6127 72.7219 37.0065 74.3281 35.0223 74.3281C33.0381 74.3281 31.4319 72.7219 31.4319 70.7377C31.4319 68.7535 33.0381 67.1473 35.0223 67.1473ZM30.1091 67.6827C29.7942 67.1788 29.4162 66.7379 28.9753 66.3599H31.2114C30.802 66.7379 30.4241 67.1788 30.1091 67.6827ZM69.6352 67.6827C69.3202 67.1788 68.9423 66.7379 68.5014 66.3599H70.7375C70.3281 66.7379 69.9501 67.1788 69.6352 67.6827ZM81.6032 63.1475C81.6032 63.7144 81.1623 64.1553 80.5954 64.1553H19.1489C18.582 64.1553 18.1411 63.7144 18.1411 63.1475V35.2745C18.1411 34.7076 18.582 34.2667 19.1489 34.2667H80.5954C81.1623 34.2667 81.6032 34.7076 81.6032 35.2745V63.1475Z" fill="#1E3662"/>
<path d="M25.2589 37.479C24.6605 37.479 24.1566 37.9829 24.1566 38.5813V59.8404C24.1566 60.4388 24.6605 60.9427 25.2589 60.9427C25.8573 60.9427 26.3612 60.4388 26.3612 59.8404V38.5813C26.3612 37.9514 25.8573 37.479 25.2589 37.479Z" fill="#1E3662"/>
<path d="M31.432 37.479C30.8336 37.479 30.3297 37.9829 30.3297 38.5813V59.8404C30.3297 60.4388 30.8336 60.9427 31.432 60.9427C32.0304 60.9427 32.5344 60.4388 32.5344 59.8404V38.5813C32.5344 37.9514 32.0304 37.479 31.432 37.479Z" fill="#1E3662"/>
<path d="M37.5735 37.479C36.9751 37.479 36.4712 37.9829 36.4712 38.5813V59.8404C36.4712 60.4388 36.9751 60.9427 37.5735 60.9427C38.1719 60.9427 38.6759 60.4388 38.6759 59.8404V38.5813C38.6759 37.9514 38.2034 37.479 37.5735 37.479Z" fill="#1E3662"/>
<path d="M43.7465 37.479C43.1481 37.479 42.6442 37.9829 42.6442 38.5813V59.8404C42.6442 60.4388 43.1481 60.9427 43.7465 60.9427C44.3449 60.9427 44.8488 60.4388 44.8488 59.8404V38.5813C44.8488 37.9514 44.3449 37.479 43.7465 37.479Z" fill="#1E3662"/>
<path d="M49.9194 37.479C49.321 37.479 48.8171 37.9829 48.8171 38.5813V59.8404C48.8171 60.4388 49.321 60.9427 49.9194 60.9427C50.5178 60.9427 51.0217 60.4388 51.0217 59.8404V38.5813C51.0217 37.9514 50.5178 37.479 49.9194 37.479Z" fill="#1E3662"/>
<path d="M56.061 37.479C55.4626 37.479 54.9587 37.9829 54.9587 38.5813V59.8404C54.9587 60.4388 55.4626 60.9427 56.061 60.9427C56.6594 60.9427 57.1634 60.4388 57.1634 59.8404V38.5813C57.1634 37.9514 56.6594 37.479 56.061 37.479Z" fill="#1E3662"/>
<path d="M62.2339 37.479C61.6355 37.479 61.1316 37.9829 61.1316 38.5813V59.8404C61.1316 60.4388 61.6355 60.9427 62.2339 60.9427C62.8323 60.9427 63.3362 60.4388 63.3362 59.8404V38.5813C63.3362 37.9514 62.8323 37.479 62.2339 37.479Z" fill="#1E3662"/>
<path d="M68.3754 37.479C67.777 37.479 67.2731 37.9829 67.2731 38.5813V59.8404C67.2731 60.4388 67.777 60.9427 68.3754 60.9427C68.9738 60.9427 69.4777 60.4388 69.4777 59.8404V38.5813C69.4777 37.9514 69.0053 37.479 68.3754 37.479Z" fill="#1E3662"/>
<path d="M74.5485 37.479C73.9501 37.479 73.4462 37.9829 73.4462 38.5813V59.8404C73.4462 60.4388 73.9501 60.9427 74.5485 60.9427C75.1469 60.9427 75.6508 60.4388 75.6508 59.8404V38.5813C75.6508 37.9514 75.1469 37.479 74.5485 37.479Z" fill="#1E3662"/>
<path d="M17.3223 31.1801L50.266 22.834L82.4222 31.2116C82.5167 31.2431 82.6112 31.2431 82.7057 31.2431C83.2096 31.2431 83.6505 30.9282 83.7765 30.4242C83.934 29.8258 83.5875 29.2274 82.9891 29.07L53.006 21.2592C53.321 20.7553 53.4784 20.1884 53.4784 19.5585C53.4784 18.1727 52.5966 16.9759 51.3683 16.535V13.669C51.3683 13.0706 50.8644 12.5667 50.266 12.5667C49.6676 12.5667 49.1636 13.0706 49.1636 13.669V18.5507H50.266C50.8329 18.5507 51.2738 18.9916 51.2738 19.5585C51.2738 20.0939 50.8644 20.5034 50.3604 20.5663L50.266 20.5349L50.1715 20.5663C49.6676 20.5034 49.2581 20.0939 49.2581 19.5585C49.2581 18.9601 48.7542 18.4562 48.1558 18.4562C47.5574 18.4562 47.0535 18.9601 47.0535 19.5585C47.0535 20.1569 47.2425 20.7553 47.5259 21.2277L16.7869 29.0385C16.1885 29.1959 15.8421 29.7943 15.9995 30.3927C16.157 30.9912 16.7239 31.3376 17.3223 31.1801Z" fill="#1E3662"/>
<path d="M50.266 11.9052C52.0297 11.9052 53.4785 10.4564 53.4785 8.6927C53.4785 6.92899 52.0297 5.48022 50.266 5.48022C48.5023 5.48022 47.0535 6.92899 47.0535 8.6927C47.0535 10.4564 48.5023 11.9052 50.266 11.9052ZM49.2582 8.6927C49.2582 8.12579 49.6991 7.68487 50.266 7.68487C50.8329 7.68487 51.2738 8.12579 51.2738 8.6927C51.2738 9.25961 50.8329 9.70054 50.266 9.70054C49.6991 9.70054 49.2582 9.22811 49.2582 8.6927Z" fill="#1E3662"/>
</svg>
