<svg width="40" height="40" viewBox="0 0 40 40" fill="none" xmlns="http://www.w3.org/2000/svg">
<path d="M20 0C8.95503 0 0 8.95373 0 20C0 31.0463 8.95503 40 20 40C31.0463 40 40 31.045 40 20C40 8.95503 31.0463 0 20 0ZM28.17 20.6687C27.6812 21.1575 26.89 21.1575 26.4025 20.6687L21.25 15.5175V28.75C21.25 29.44 20.69 30 20 30C19.31 30 18.75 29.44 18.75 28.75V15.5175L13.5988 20.6687C13.11 21.1575 12.3188 21.1575 11.8312 20.6687C11.3425 20.1799 11.3425 19.3888 11.8312 18.9012L18.9025 11.83C19.2012 11.5312 19.6125 11.4375 20 11.5063C20.3875 11.4375 20.7988 11.5312 21.0988 11.83L28.17 18.9012C28.6575 19.39 28.6575 20.1812 28.17 20.6687Z" fill="#091B3B"/>
</svg>
