<svg width="46" height="46" viewBox="0 0 46 46" fill="none" xmlns="http://www.w3.org/2000/svg">
<path d="M34.3467 22.2717C34.2554 22.0364 34.1187 21.8215 33.9442 21.6392L24.3608 12.0559C24.1821 11.8772 23.97 11.7354 23.7365 11.6387C23.503 11.542 23.2527 11.4922 23 11.4922C22.4896 11.4922 22.0001 11.6949 21.6392 12.0559C21.4605 12.2346 21.3187 12.4467 21.222 12.6802C21.1253 12.9137 21.0755 13.164 21.0755 13.4167C21.0755 13.9271 21.2783 14.4166 21.6392 14.7775L27.9642 21.0834H13.4167C12.9083 21.0834 12.4208 21.2853 12.0614 21.6447C11.7019 22.0042 11.5 22.4917 11.5 23C11.5 23.5084 11.7019 23.9959 12.0614 24.3553C12.4208 24.7148 12.9083 24.9167 13.4167 24.9167H27.9642L21.6392 31.2225C21.4595 31.4007 21.3169 31.6127 21.2196 31.8463C21.1223 32.0798 21.0722 32.3303 21.0722 32.5834C21.0722 32.8364 21.1223 33.0869 21.2196 33.3205C21.3169 33.554 21.4595 33.766 21.6392 33.9442C21.8173 34.1238 22.0293 34.2664 22.2629 34.3637C22.4965 34.461 22.747 34.5111 23 34.5111C23.253 34.5111 23.5035 34.461 23.7371 34.3637C23.9707 34.2664 24.1827 34.1238 24.3608 33.9442L33.9442 24.3609C34.1187 24.1786 34.2554 23.9636 34.3467 23.7284C34.5384 23.2617 34.5384 22.7383 34.3467 22.2717Z" fill="black"/>
</svg>
