<svg width="40" height="40" viewBox="0 0 40 40" fill="none" xmlns="http://www.w3.org/2000/svg">
<circle cx="20" cy="20" r="20" fill="white"/>
<path d="M33.1536 12.1266C33.1536 9.44712 30.9796 7.27393 28.3009 7.27393H16.978C14.2985 7.27393 12.1253 9.44712 12.1253 12.1266V18.5969C12.1253 21.2756 14.2985 23.4496 16.978 23.4496H26.6268L31.6444 27.2225C32.0319 27.6099 32.3877 27.6657 32.7743 27.4425C33.0679 27.2719 33.1876 27.022 33.1439 26.7065C33.1439 26.6912 33.1536 18.8743 33.1536 18.5969V12.1266ZM31.5361 25.4238L27.3983 22.2081C27.1961 21.8546 26.774 21.7269 26.406 21.8668C26.4076 21.8546 26.4084 21.8425 26.41 21.8304H16.978C15.1914 21.8304 13.7429 20.3819 13.7429 18.5953V12.125C13.7429 10.3384 15.1914 8.88987 16.978 8.88987H28.3009C30.0875 8.88987 31.5361 10.3384 31.5361 12.125V25.4238Z" fill="#091A3A"/>
<path d="M19.4052 12.9341C18.0658 12.9341 16.9788 14.0203 16.9788 15.3604C16.9788 16.7006 18.0658 17.7868 19.4052 17.7868C20.7453 17.7868 21.8315 16.7006 21.8315 15.3604C21.8315 14.0203 20.7453 12.9341 19.4052 12.9341ZM19.4052 16.1692C18.9587 16.1692 18.5964 15.8077 18.5964 15.3604C18.5964 14.914 18.9587 14.5516 19.4052 14.5516C19.8524 14.5516 20.2139 14.914 20.2139 15.3604C20.2139 15.8077 19.8524 16.1692 19.4052 16.1692Z" fill="#091A3A"/>
<path d="M25.8759 12.9341C24.5365 12.9341 23.4495 14.0203 23.4495 15.3604C23.4495 16.7006 24.5365 17.7868 25.8759 17.7868C27.216 17.7868 28.3022 16.7006 28.3022 15.3604C28.3022 14.0203 27.216 12.9341 25.8759 12.9341ZM25.8759 16.1692C25.4294 16.1692 25.0671 15.8077 25.0671 15.3604C25.0671 14.914 25.4294 14.5516 25.8759 14.5516C26.3231 14.5516 26.6847 14.914 26.6847 15.3604C26.6847 15.8077 26.3231 16.1692 25.8759 16.1692Z" fill="#091A3A"/>
<path d="M21.8253 23.4496C21.793 25.1998 20.3623 26.6104 18.5967 26.6104H14.0182C14.0198 26.6225 14.0198 26.6338 14.0214 26.6459C13.6542 26.5068 13.232 26.6338 13.029 26.9864L8.89131 30.186V20.1927C8.89131 18.4142 10.3398 16.9737 12.1264 16.9737V16.1706C12.1264 15.8948 12.1547 15.6255 12.1992 15.3618H12.1264C9.44694 15.3618 7.27374 17.5245 7.27374 20.1927V23.3906C7.27374 23.6664 7.28264 31.4477 7.28345 31.463C7.23977 31.7777 7.35947 32.0252 7.65306 32.1942C8.04047 32.4158 8.39633 32.36 8.78293 31.975L13.8006 28.219H18.5967C21.2568 28.219 23.4138 26.0879 23.4461 23.4488H21.8253V23.4496Z" fill="#091A3A"/>
</svg>
